%TF.GenerationSoftware,KiCad,Pcbnew,10.0.6*%
%TF.CreationDate,2026-10-09T16:04:15+03:00*%
%TF.ProjectId,analog_filter_module,616e616c-6f67-45f6-9669-6c7465725f6d,rev?*%
%TF.SameCoordinates,Original*%
%TF.FileFunction,Soldermask,Top*%
%TF.FilePolarity,Negative*%
%FSLAX46Y46*%
G04 Gerber Fmt 4.6, Leading zero omitted, Abs format (unit mm)*
G04 Created by KiCad (PCBNEW 10.0.6) date 2026-10-09 16:04:15*
%MOMM*%
%LPD*%
G01*
G04 APERTURE LIST*
G04 APERTURE END LIST*
G36*
X122932403Y-116651418D02*
G01*
X122981066Y-116683934D01*
X123013582Y-116732597D01*
X123025000Y-116790000D01*
X123025000Y-117090000D01*
X123013582Y-117147403D01*
X122981066Y-117196066D01*
X122932403Y-117228582D01*
X122875000Y-117240000D01*
X121225000Y-117240000D01*
X121167597Y-117228582D01*
X121118934Y-117196066D01*
X121086418Y-117147403D01*
X121075000Y-117090000D01*
X121075000Y-116790000D01*
X121086418Y-116732597D01*
X121118934Y-116683934D01*
X121167597Y-116651418D01*
X121225000Y-116640000D01*
X122875000Y-116640000D01*
X122932403Y-116651418D01*
G37*
G36*
X127882403Y-116651418D02*
G01*
X127931066Y-116683934D01*
X127963582Y-116732597D01*
X127975000Y-116790000D01*
X127975000Y-117090000D01*
X127963582Y-117147403D01*
X127931066Y-117196066D01*
X127882403Y-117228582D01*
X127825000Y-117240000D01*
X126175000Y-117240000D01*
X126117597Y-117228582D01*
X126068934Y-117196066D01*
X126036418Y-117147403D01*
X126025000Y-117090000D01*
X126025000Y-116790000D01*
X126036418Y-116732597D01*
X126068934Y-116683934D01*
X126117597Y-116651418D01*
X126175000Y-116640000D01*
X127825000Y-116640000D01*
X127882403Y-116651418D01*
G37*
G36*
X133235000Y-116535000D02*
G01*
X131535000Y-116535000D01*
X131535000Y-114835000D01*
X133235000Y-114835000D01*
X133235000Y-116535000D01*
G37*
G36*
X135171742Y-114871601D02*
G01*
X135325687Y-114935367D01*
X135464234Y-115027941D01*
X135582059Y-115145766D01*
X135674633Y-115284313D01*
X135738399Y-115438258D01*
X135770907Y-115601685D01*
X135770907Y-115768315D01*
X135738399Y-115931742D01*
X135674633Y-116085687D01*
X135582059Y-116224234D01*
X135464234Y-116342059D01*
X135325687Y-116434633D01*
X135171742Y-116498399D01*
X135008315Y-116530907D01*
X134841685Y-116530907D01*
X134678258Y-116498399D01*
X134524313Y-116434633D01*
X134385766Y-116342059D01*
X134267941Y-116224234D01*
X134175367Y-116085687D01*
X134111601Y-115931742D01*
X134079093Y-115768315D01*
X134079093Y-115601685D01*
X134111601Y-115438258D01*
X134175367Y-115284313D01*
X134267941Y-115145766D01*
X134385766Y-115027941D01*
X134524313Y-114935367D01*
X134678258Y-114871601D01*
X134841685Y-114839093D01*
X135008315Y-114839093D01*
X135171742Y-114871601D01*
G37*
G36*
X122932403Y-115381418D02*
G01*
X122981066Y-115413934D01*
X123013582Y-115462597D01*
X123025000Y-115520000D01*
X123025000Y-115820000D01*
X123013582Y-115877403D01*
X122981066Y-115926066D01*
X122932403Y-115958582D01*
X122875000Y-115970000D01*
X121225000Y-115970000D01*
X121167597Y-115958582D01*
X121118934Y-115926066D01*
X121086418Y-115877403D01*
X121075000Y-115820000D01*
X121075000Y-115520000D01*
X121086418Y-115462597D01*
X121118934Y-115413934D01*
X121167597Y-115381418D01*
X121225000Y-115370000D01*
X122875000Y-115370000D01*
X122932403Y-115381418D01*
G37*
G36*
X127882403Y-115381418D02*
G01*
X127931066Y-115413934D01*
X127963582Y-115462597D01*
X127975000Y-115520000D01*
X127975000Y-115820000D01*
X127963582Y-115877403D01*
X127931066Y-115926066D01*
X127882403Y-115958582D01*
X127825000Y-115970000D01*
X126175000Y-115970000D01*
X126117597Y-115958582D01*
X126068934Y-115926066D01*
X126036418Y-115877403D01*
X126025000Y-115820000D01*
X126025000Y-115520000D01*
X126036418Y-115462597D01*
X126068934Y-115413934D01*
X126117597Y-115381418D01*
X126175000Y-115370000D01*
X127825000Y-115370000D01*
X127882403Y-115381418D01*
G37*
G36*
X122932403Y-114111418D02*
G01*
X122981066Y-114143934D01*
X123013582Y-114192597D01*
X123025000Y-114250000D01*
X123025000Y-114550000D01*
X123013582Y-114607403D01*
X122981066Y-114656066D01*
X122932403Y-114688582D01*
X122875000Y-114700000D01*
X121225000Y-114700000D01*
X121167597Y-114688582D01*
X121118934Y-114656066D01*
X121086418Y-114607403D01*
X121075000Y-114550000D01*
X121075000Y-114250000D01*
X121086418Y-114192597D01*
X121118934Y-114143934D01*
X121167597Y-114111418D01*
X121225000Y-114100000D01*
X122875000Y-114100000D01*
X122932403Y-114111418D01*
G37*
G36*
X127882403Y-114111418D02*
G01*
X127931066Y-114143934D01*
X127963582Y-114192597D01*
X127975000Y-114250000D01*
X127975000Y-114550000D01*
X127963582Y-114607403D01*
X127931066Y-114656066D01*
X127882403Y-114688582D01*
X127825000Y-114700000D01*
X126175000Y-114700000D01*
X126117597Y-114688582D01*
X126068934Y-114656066D01*
X126036418Y-114607403D01*
X126025000Y-114550000D01*
X126025000Y-114250000D01*
X126036418Y-114192597D01*
X126068934Y-114143934D01*
X126117597Y-114111418D01*
X126175000Y-114100000D01*
X127825000Y-114100000D01*
X127882403Y-114111418D01*
G37*
G36*
X122932403Y-112841418D02*
G01*
X122981066Y-112873934D01*
X123013582Y-112922597D01*
X123025000Y-112980000D01*
X123025000Y-113280000D01*
X123013582Y-113337403D01*
X122981066Y-113386066D01*
X122932403Y-113418582D01*
X122875000Y-113430000D01*
X121225000Y-113430000D01*
X121167597Y-113418582D01*
X121118934Y-113386066D01*
X121086418Y-113337403D01*
X121075000Y-113280000D01*
X121075000Y-112980000D01*
X121086418Y-112922597D01*
X121118934Y-112873934D01*
X121167597Y-112841418D01*
X121225000Y-112830000D01*
X122875000Y-112830000D01*
X122932403Y-112841418D01*
G37*
G36*
X127882403Y-112841418D02*
G01*
X127931066Y-112873934D01*
X127963582Y-112922597D01*
X127975000Y-112980000D01*
X127975000Y-113280000D01*
X127963582Y-113337403D01*
X127931066Y-113386066D01*
X127882403Y-113418582D01*
X127825000Y-113430000D01*
X126175000Y-113430000D01*
X126117597Y-113418582D01*
X126068934Y-113386066D01*
X126036418Y-113337403D01*
X126025000Y-113280000D01*
X126025000Y-112980000D01*
X126036418Y-112922597D01*
X126068934Y-112873934D01*
X126117597Y-112841418D01*
X126175000Y-112830000D01*
X127825000Y-112830000D01*
X127882403Y-112841418D01*
G37*
G36*
X130547228Y-107919448D02*
G01*
X130692117Y-107979463D01*
X130822515Y-108066592D01*
X130933408Y-108177485D01*
X131020537Y-108307883D01*
X131080552Y-108452772D01*
X131111148Y-108606586D01*
X131111148Y-108763414D01*
X131080552Y-108917228D01*
X131020537Y-109062117D01*
X130933408Y-109192515D01*
X130822515Y-109303408D01*
X130692117Y-109390537D01*
X130547228Y-109450552D01*
X130393414Y-109481148D01*
X130236586Y-109481148D01*
X130082772Y-109450552D01*
X129937883Y-109390537D01*
X129807485Y-109303408D01*
X129696592Y-109192515D01*
X129609463Y-109062117D01*
X129549448Y-108917228D01*
X129518852Y-108763414D01*
X129518852Y-108606586D01*
X129549448Y-108452772D01*
X129609463Y-108307883D01*
X129696592Y-108177485D01*
X129807485Y-108066592D01*
X129937883Y-107979463D01*
X130082772Y-107919448D01*
X130236586Y-107888852D01*
X130393414Y-107888852D01*
X130547228Y-107919448D01*
G37*
G36*
X135547228Y-107919448D02*
G01*
X135692117Y-107979463D01*
X135822515Y-108066592D01*
X135933408Y-108177485D01*
X136020537Y-108307883D01*
X136080552Y-108452772D01*
X136111148Y-108606586D01*
X136111148Y-108763414D01*
X136080552Y-108917228D01*
X136020537Y-109062117D01*
X135933408Y-109192515D01*
X135822515Y-109303408D01*
X135692117Y-109390537D01*
X135547228Y-109450552D01*
X135393414Y-109481148D01*
X135236586Y-109481148D01*
X135082772Y-109450552D01*
X134937883Y-109390537D01*
X134807485Y-109303408D01*
X134696592Y-109192515D01*
X134609463Y-109062117D01*
X134549448Y-108917228D01*
X134518852Y-108763414D01*
X134518852Y-108606586D01*
X134549448Y-108452772D01*
X134609463Y-108307883D01*
X134696592Y-108177485D01*
X134807485Y-108066592D01*
X134937883Y-107979463D01*
X135082772Y-107919448D01*
X135236586Y-107888852D01*
X135393414Y-107888852D01*
X135547228Y-107919448D01*
G37*
G36*
X122132228Y-107734448D02*
G01*
X122277117Y-107794463D01*
X122407515Y-107881592D01*
X122518408Y-107992485D01*
X122605537Y-108122883D01*
X122665552Y-108267772D01*
X122696148Y-108421586D01*
X122696148Y-108578414D01*
X122665552Y-108732228D01*
X122605537Y-108877117D01*
X122518408Y-109007515D01*
X122407515Y-109118408D01*
X122277117Y-109205537D01*
X122132228Y-109265552D01*
X121978414Y-109296148D01*
X121821586Y-109296148D01*
X121667772Y-109265552D01*
X121522883Y-109205537D01*
X121392485Y-109118408D01*
X121281592Y-109007515D01*
X121194463Y-108877117D01*
X121134448Y-108732228D01*
X121103852Y-108578414D01*
X121103852Y-108421586D01*
X121134448Y-108267772D01*
X121194463Y-108122883D01*
X121281592Y-107992485D01*
X121392485Y-107881592D01*
X121522883Y-107794463D01*
X121667772Y-107734448D01*
X121821586Y-107703852D01*
X121978414Y-107703852D01*
X122132228Y-107734448D01*
G37*
G36*
X127132228Y-107734448D02*
G01*
X127277117Y-107794463D01*
X127407515Y-107881592D01*
X127518408Y-107992485D01*
X127605537Y-108122883D01*
X127665552Y-108267772D01*
X127696148Y-108421586D01*
X127696148Y-108578414D01*
X127665552Y-108732228D01*
X127605537Y-108877117D01*
X127518408Y-109007515D01*
X127407515Y-109118408D01*
X127277117Y-109205537D01*
X127132228Y-109265552D01*
X126978414Y-109296148D01*
X126821586Y-109296148D01*
X126667772Y-109265552D01*
X126522883Y-109205537D01*
X126392485Y-109118408D01*
X126281592Y-109007515D01*
X126194463Y-108877117D01*
X126134448Y-108732228D01*
X126103852Y-108578414D01*
X126103852Y-108421586D01*
X126134448Y-108267772D01*
X126194463Y-108122883D01*
X126281592Y-107992485D01*
X126392485Y-107881592D01*
X126522883Y-107794463D01*
X126667772Y-107734448D01*
X126821586Y-107703852D01*
X126978414Y-107703852D01*
X127132228Y-107734448D01*
G37*
G36*
X113022228Y-107184448D02*
G01*
X113167117Y-107244463D01*
X113297515Y-107331592D01*
X113408408Y-107442485D01*
X113495537Y-107572883D01*
X113555552Y-107717772D01*
X113586148Y-107871586D01*
X113586148Y-108028414D01*
X113555552Y-108182228D01*
X113495537Y-108327117D01*
X113408408Y-108457515D01*
X113297515Y-108568408D01*
X113167117Y-108655537D01*
X113022228Y-108715552D01*
X112868414Y-108746148D01*
X112711586Y-108746148D01*
X112557772Y-108715552D01*
X112412883Y-108655537D01*
X112282485Y-108568408D01*
X112171592Y-108457515D01*
X112084463Y-108327117D01*
X112024448Y-108182228D01*
X111993852Y-108028414D01*
X111993852Y-107871586D01*
X112024448Y-107717772D01*
X112084463Y-107572883D01*
X112171592Y-107442485D01*
X112282485Y-107331592D01*
X112412883Y-107244463D01*
X112557772Y-107184448D01*
X112711586Y-107153852D01*
X112868414Y-107153852D01*
X113022228Y-107184448D01*
G37*
G36*
X118022228Y-107184448D02*
G01*
X118167117Y-107244463D01*
X118297515Y-107331592D01*
X118408408Y-107442485D01*
X118495537Y-107572883D01*
X118555552Y-107717772D01*
X118586148Y-107871586D01*
X118586148Y-108028414D01*
X118555552Y-108182228D01*
X118495537Y-108327117D01*
X118408408Y-108457515D01*
X118297515Y-108568408D01*
X118167117Y-108655537D01*
X118022228Y-108715552D01*
X117868414Y-108746148D01*
X117711586Y-108746148D01*
X117557772Y-108715552D01*
X117412883Y-108655537D01*
X117282485Y-108568408D01*
X117171592Y-108457515D01*
X117084463Y-108327117D01*
X117024448Y-108182228D01*
X116993852Y-108028414D01*
X116993852Y-107871586D01*
X117024448Y-107717772D01*
X117084463Y-107572883D01*
X117171592Y-107442485D01*
X117282485Y-107331592D01*
X117412883Y-107244463D01*
X117557772Y-107184448D01*
X117711586Y-107153852D01*
X117868414Y-107153852D01*
X118022228Y-107184448D01*
G37*
G36*
X119677228Y-101649448D02*
G01*
X119822117Y-101709463D01*
X119952515Y-101796592D01*
X120063408Y-101907485D01*
X120150537Y-102037883D01*
X120210552Y-102182772D01*
X120241148Y-102336586D01*
X120241148Y-102493414D01*
X120210552Y-102647228D01*
X120150537Y-102792117D01*
X120063408Y-102922515D01*
X119952515Y-103033408D01*
X119822117Y-103120537D01*
X119677228Y-103180552D01*
X119523414Y-103211148D01*
X119366586Y-103211148D01*
X119212772Y-103180552D01*
X119067883Y-103120537D01*
X118937485Y-103033408D01*
X118826592Y-102922515D01*
X118739463Y-102792117D01*
X118679448Y-102647228D01*
X118648852Y-102493414D01*
X118648852Y-102336586D01*
X118679448Y-102182772D01*
X118739463Y-102037883D01*
X118826592Y-101907485D01*
X118937485Y-101796592D01*
X119067883Y-101709463D01*
X119212772Y-101649448D01*
X119366586Y-101618852D01*
X119523414Y-101618852D01*
X119677228Y-101649448D01*
G37*
G36*
X127297228Y-101649448D02*
G01*
X127442117Y-101709463D01*
X127572515Y-101796592D01*
X127683408Y-101907485D01*
X127770537Y-102037883D01*
X127830552Y-102182772D01*
X127861148Y-102336586D01*
X127861148Y-102493414D01*
X127830552Y-102647228D01*
X127770537Y-102792117D01*
X127683408Y-102922515D01*
X127572515Y-103033408D01*
X127442117Y-103120537D01*
X127297228Y-103180552D01*
X127143414Y-103211148D01*
X126986586Y-103211148D01*
X126832772Y-103180552D01*
X126687883Y-103120537D01*
X126557485Y-103033408D01*
X126446592Y-102922515D01*
X126359463Y-102792117D01*
X126299448Y-102647228D01*
X126268852Y-102493414D01*
X126268852Y-102336586D01*
X126299448Y-102182772D01*
X126359463Y-102037883D01*
X126446592Y-101907485D01*
X126557485Y-101796592D01*
X126687883Y-101709463D01*
X126832772Y-101649448D01*
X126986586Y-101618852D01*
X127143414Y-101618852D01*
X127297228Y-101649448D01*
G37*
G36*
X114446742Y-99926601D02*
G01*
X114600687Y-99990367D01*
X114739234Y-100082941D01*
X114857059Y-100200766D01*
X114949633Y-100339313D01*
X115013399Y-100493258D01*
X115045907Y-100656685D01*
X115045907Y-100823315D01*
X115013399Y-100986742D01*
X114949633Y-101140687D01*
X114857059Y-101279234D01*
X114739234Y-101397059D01*
X114600687Y-101489633D01*
X114446742Y-101553399D01*
X114283315Y-101585907D01*
X114116685Y-101585907D01*
X113953258Y-101553399D01*
X113799313Y-101489633D01*
X113660766Y-101397059D01*
X113542941Y-101279234D01*
X113450367Y-101140687D01*
X113386601Y-100986742D01*
X113354093Y-100823315D01*
X113354093Y-100656685D01*
X113386601Y-100493258D01*
X113450367Y-100339313D01*
X113542941Y-100200766D01*
X113660766Y-100082941D01*
X113799313Y-99990367D01*
X113953258Y-99926601D01*
X114116685Y-99894093D01*
X114283315Y-99894093D01*
X114446742Y-99926601D01*
G37*
G36*
X115050000Y-99050000D02*
G01*
X113350000Y-99050000D01*
X113350000Y-97350000D01*
X115050000Y-97350000D01*
X115050000Y-99050000D01*
G37*
G36*
X119677228Y-97349448D02*
G01*
X119822117Y-97409463D01*
X119952515Y-97496592D01*
X120063408Y-97607485D01*
X120150537Y-97737883D01*
X120210552Y-97882772D01*
X120241148Y-98036586D01*
X120241148Y-98193414D01*
X120210552Y-98347228D01*
X120150537Y-98492117D01*
X120063408Y-98622515D01*
X119952515Y-98733408D01*
X119822117Y-98820537D01*
X119677228Y-98880552D01*
X119523414Y-98911148D01*
X119366586Y-98911148D01*
X119212772Y-98880552D01*
X119067883Y-98820537D01*
X118937485Y-98733408D01*
X118826592Y-98622515D01*
X118739463Y-98492117D01*
X118679448Y-98347228D01*
X118648852Y-98193414D01*
X118648852Y-98036586D01*
X118679448Y-97882772D01*
X118739463Y-97737883D01*
X118826592Y-97607485D01*
X118937485Y-97496592D01*
X119067883Y-97409463D01*
X119212772Y-97349448D01*
X119366586Y-97318852D01*
X119523414Y-97318852D01*
X119677228Y-97349448D01*
G37*
G36*
X127297228Y-97349448D02*
G01*
X127442117Y-97409463D01*
X127572515Y-97496592D01*
X127683408Y-97607485D01*
X127770537Y-97737883D01*
X127830552Y-97882772D01*
X127861148Y-98036586D01*
X127861148Y-98193414D01*
X127830552Y-98347228D01*
X127770537Y-98492117D01*
X127683408Y-98622515D01*
X127572515Y-98733408D01*
X127442117Y-98820537D01*
X127297228Y-98880552D01*
X127143414Y-98911148D01*
X126986586Y-98911148D01*
X126832772Y-98880552D01*
X126687883Y-98820537D01*
X126557485Y-98733408D01*
X126446592Y-98622515D01*
X126359463Y-98492117D01*
X126299448Y-98347228D01*
X126268852Y-98193414D01*
X126268852Y-98036586D01*
X126299448Y-97882772D01*
X126359463Y-97737883D01*
X126446592Y-97607485D01*
X126557485Y-97496592D01*
X126687883Y-97409463D01*
X126832772Y-97349448D01*
X126986586Y-97318852D01*
X127143414Y-97318852D01*
X127297228Y-97349448D01*
G37*
G36*
X136790000Y-98690000D02*
G01*
X134990000Y-98690000D01*
X134990000Y-96890000D01*
X136790000Y-96890000D01*
X136790000Y-98690000D01*
G37*
G36*
X136151256Y-94388754D02*
G01*
X136314257Y-94456271D01*
X136460954Y-94554291D01*
X136585709Y-94679046D01*
X136683729Y-94825743D01*
X136751246Y-94988744D01*
X136785666Y-95161785D01*
X136785666Y-95338215D01*
X136751246Y-95511256D01*
X136683729Y-95674257D01*
X136585709Y-95820954D01*
X136460954Y-95945709D01*
X136314257Y-96043729D01*
X136151256Y-96111246D01*
X135978215Y-96145666D01*
X135801785Y-96145666D01*
X135628744Y-96111246D01*
X135465743Y-96043729D01*
X135319046Y-95945709D01*
X135194291Y-95820954D01*
X135096271Y-95674257D01*
X135028754Y-95511256D01*
X134994334Y-95338215D01*
X134994334Y-95161785D01*
X135028754Y-94988744D01*
X135096271Y-94825743D01*
X135194291Y-94679046D01*
X135319046Y-94554291D01*
X135465743Y-94456271D01*
X135628744Y-94388754D01*
X135801785Y-94354334D01*
X135978215Y-94354334D01*
X136151256Y-94388754D01*
G37*
G36*
X113997228Y-93139448D02*
G01*
X114142117Y-93199463D01*
X114272515Y-93286592D01*
X114383408Y-93397485D01*
X114470537Y-93527883D01*
X114530552Y-93672772D01*
X114561148Y-93826586D01*
X114561148Y-93983414D01*
X114530552Y-94137228D01*
X114470537Y-94282117D01*
X114383408Y-94412515D01*
X114272515Y-94523408D01*
X114142117Y-94610537D01*
X113997228Y-94670552D01*
X113843414Y-94701148D01*
X113686586Y-94701148D01*
X113532772Y-94670552D01*
X113387883Y-94610537D01*
X113257485Y-94523408D01*
X113146592Y-94412515D01*
X113059463Y-94282117D01*
X112999448Y-94137228D01*
X112968852Y-93983414D01*
X112968852Y-93826586D01*
X112999448Y-93672772D01*
X113059463Y-93527883D01*
X113146592Y-93397485D01*
X113257485Y-93286592D01*
X113387883Y-93199463D01*
X113532772Y-93139448D01*
X113686586Y-93108852D01*
X113843414Y-93108852D01*
X113997228Y-93139448D01*
G37*
G36*
X128502228Y-91534448D02*
G01*
X128647117Y-91594463D01*
X128777515Y-91681592D01*
X128888408Y-91792485D01*
X128975537Y-91922883D01*
X129035552Y-92067772D01*
X129066148Y-92221586D01*
X129066148Y-92378414D01*
X129035552Y-92532228D01*
X128975537Y-92677117D01*
X128888408Y-92807515D01*
X128777515Y-92918408D01*
X128647117Y-93005537D01*
X128502228Y-93065552D01*
X128348414Y-93096148D01*
X128191586Y-93096148D01*
X128037772Y-93065552D01*
X127892883Y-93005537D01*
X127762485Y-92918408D01*
X127651592Y-92807515D01*
X127564463Y-92677117D01*
X127504448Y-92532228D01*
X127473852Y-92378414D01*
X127473852Y-92221586D01*
X127504448Y-92067772D01*
X127564463Y-91922883D01*
X127651592Y-91792485D01*
X127762485Y-91681592D01*
X127892883Y-91594463D01*
X128037772Y-91534448D01*
X128191586Y-91503852D01*
X128348414Y-91503852D01*
X128502228Y-91534448D01*
G37*
G36*
X118277403Y-92506418D02*
G01*
X118326066Y-92538934D01*
X118358582Y-92587597D01*
X118370000Y-92645000D01*
X118370000Y-92945000D01*
X118358582Y-93002403D01*
X118326066Y-93051066D01*
X118277403Y-93083582D01*
X118220000Y-93095000D01*
X117195000Y-93095000D01*
X117137597Y-93083582D01*
X117088934Y-93051066D01*
X117056418Y-93002403D01*
X117045000Y-92945000D01*
X117045000Y-92645000D01*
X117056418Y-92587597D01*
X117088934Y-92538934D01*
X117137597Y-92506418D01*
X117195000Y-92495000D01*
X118220000Y-92495000D01*
X118277403Y-92506418D01*
G37*
G36*
X120552403Y-92506418D02*
G01*
X120601066Y-92538934D01*
X120633582Y-92587597D01*
X120645000Y-92645000D01*
X120645000Y-92945000D01*
X120633582Y-93002403D01*
X120601066Y-93051066D01*
X120552403Y-93083582D01*
X120495000Y-93095000D01*
X119470000Y-93095000D01*
X119412597Y-93083582D01*
X119363934Y-93051066D01*
X119331418Y-93002403D01*
X119320000Y-92945000D01*
X119320000Y-92645000D01*
X119331418Y-92587597D01*
X119363934Y-92538934D01*
X119412597Y-92506418D01*
X119470000Y-92495000D01*
X120495000Y-92495000D01*
X120552403Y-92506418D01*
G37*
G36*
X118277403Y-91556418D02*
G01*
X118326066Y-91588934D01*
X118358582Y-91637597D01*
X118370000Y-91695000D01*
X118370000Y-91995000D01*
X118358582Y-92052403D01*
X118326066Y-92101066D01*
X118277403Y-92133582D01*
X118220000Y-92145000D01*
X117195000Y-92145000D01*
X117137597Y-92133582D01*
X117088934Y-92101066D01*
X117056418Y-92052403D01*
X117045000Y-91995000D01*
X117045000Y-91695000D01*
X117056418Y-91637597D01*
X117088934Y-91588934D01*
X117137597Y-91556418D01*
X117195000Y-91545000D01*
X118220000Y-91545000D01*
X118277403Y-91556418D01*
G37*
G36*
X118277403Y-90606418D02*
G01*
X118326066Y-90638934D01*
X118358582Y-90687597D01*
X118370000Y-90745000D01*
X118370000Y-91045000D01*
X118358582Y-91102403D01*
X118326066Y-91151066D01*
X118277403Y-91183582D01*
X118220000Y-91195000D01*
X117195000Y-91195000D01*
X117137597Y-91183582D01*
X117088934Y-91151066D01*
X117056418Y-91102403D01*
X117045000Y-91045000D01*
X117045000Y-90745000D01*
X117056418Y-90687597D01*
X117088934Y-90638934D01*
X117137597Y-90606418D01*
X117195000Y-90595000D01*
X118220000Y-90595000D01*
X118277403Y-90606418D01*
G37*
G36*
X120552403Y-90606418D02*
G01*
X120601066Y-90638934D01*
X120633582Y-90687597D01*
X120645000Y-90745000D01*
X120645000Y-91045000D01*
X120633582Y-91102403D01*
X120601066Y-91151066D01*
X120552403Y-91183582D01*
X120495000Y-91195000D01*
X119470000Y-91195000D01*
X119412597Y-91183582D01*
X119363934Y-91151066D01*
X119331418Y-91102403D01*
X119320000Y-91045000D01*
X119320000Y-90745000D01*
X119331418Y-90687597D01*
X119363934Y-90638934D01*
X119412597Y-90606418D01*
X119470000Y-90595000D01*
X120495000Y-90595000D01*
X120552403Y-90606418D01*
G37*
G36*
X128502228Y-89034448D02*
G01*
X128647117Y-89094463D01*
X128777515Y-89181592D01*
X128888408Y-89292485D01*
X128975537Y-89422883D01*
X129035552Y-89567772D01*
X129066148Y-89721586D01*
X129066148Y-89878414D01*
X129035552Y-90032228D01*
X128975537Y-90177117D01*
X128888408Y-90307515D01*
X128777515Y-90418408D01*
X128647117Y-90505537D01*
X128502228Y-90565552D01*
X128348414Y-90596148D01*
X128191586Y-90596148D01*
X128037772Y-90565552D01*
X127892883Y-90505537D01*
X127762485Y-90418408D01*
X127651592Y-90307515D01*
X127564463Y-90177117D01*
X127504448Y-90032228D01*
X127473852Y-89878414D01*
X127473852Y-89721586D01*
X127504448Y-89567772D01*
X127564463Y-89422883D01*
X127651592Y-89292485D01*
X127762485Y-89181592D01*
X127892883Y-89094463D01*
X128037772Y-89034448D01*
X128191586Y-89003852D01*
X128348414Y-89003852D01*
X128502228Y-89034448D01*
G37*
G36*
X113997228Y-88139448D02*
G01*
X114142117Y-88199463D01*
X114272515Y-88286592D01*
X114383408Y-88397485D01*
X114470537Y-88527883D01*
X114530552Y-88672772D01*
X114561148Y-88826586D01*
X114561148Y-88983414D01*
X114530552Y-89137228D01*
X114470537Y-89282117D01*
X114383408Y-89412515D01*
X114272515Y-89523408D01*
X114142117Y-89610537D01*
X113997228Y-89670552D01*
X113843414Y-89701148D01*
X113686586Y-89701148D01*
X113532772Y-89670552D01*
X113387883Y-89610537D01*
X113257485Y-89523408D01*
X113146592Y-89412515D01*
X113059463Y-89282117D01*
X112999448Y-89137228D01*
X112968852Y-88983414D01*
X112968852Y-88826586D01*
X112999448Y-88672772D01*
X113059463Y-88527883D01*
X113146592Y-88397485D01*
X113257485Y-88286592D01*
X113387883Y-88199463D01*
X113532772Y-88139448D01*
X113686586Y-88108852D01*
X113843414Y-88108852D01*
X113997228Y-88139448D01*
G37*
G36*
X128502228Y-83699448D02*
G01*
X128647117Y-83759463D01*
X128777515Y-83846592D01*
X128888408Y-83957485D01*
X128975537Y-84087883D01*
X129035552Y-84232772D01*
X129066148Y-84386586D01*
X129066148Y-84543414D01*
X129035552Y-84697228D01*
X128975537Y-84842117D01*
X128888408Y-84972515D01*
X128777515Y-85083408D01*
X128647117Y-85170537D01*
X128502228Y-85230552D01*
X128348414Y-85261148D01*
X128191586Y-85261148D01*
X128037772Y-85230552D01*
X127892883Y-85170537D01*
X127762485Y-85083408D01*
X127651592Y-84972515D01*
X127564463Y-84842117D01*
X127504448Y-84697228D01*
X127473852Y-84543414D01*
X127473852Y-84386586D01*
X127504448Y-84232772D01*
X127564463Y-84087883D01*
X127651592Y-83957485D01*
X127762485Y-83846592D01*
X127892883Y-83759463D01*
X128037772Y-83699448D01*
X128191586Y-83668852D01*
X128348414Y-83668852D01*
X128502228Y-83699448D01*
G37*
G36*
X136122228Y-83699448D02*
G01*
X136267117Y-83759463D01*
X136397515Y-83846592D01*
X136508408Y-83957485D01*
X136595537Y-84087883D01*
X136655552Y-84232772D01*
X136686148Y-84386586D01*
X136686148Y-84543414D01*
X136655552Y-84697228D01*
X136595537Y-84842117D01*
X136508408Y-84972515D01*
X136397515Y-85083408D01*
X136267117Y-85170537D01*
X136122228Y-85230552D01*
X135968414Y-85261148D01*
X135811586Y-85261148D01*
X135657772Y-85230552D01*
X135512883Y-85170537D01*
X135382485Y-85083408D01*
X135271592Y-84972515D01*
X135184463Y-84842117D01*
X135124448Y-84697228D01*
X135093852Y-84543414D01*
X135093852Y-84386586D01*
X135124448Y-84232772D01*
X135184463Y-84087883D01*
X135271592Y-83957485D01*
X135382485Y-83846592D01*
X135512883Y-83759463D01*
X135657772Y-83699448D01*
X135811586Y-83668852D01*
X135968414Y-83668852D01*
X136122228Y-83699448D01*
G37*
G36*
X119645000Y-85095000D02*
G01*
X117945000Y-85095000D01*
X117945000Y-83395000D01*
X119645000Y-83395000D01*
X119645000Y-85095000D01*
G37*
G36*
X113961742Y-83431601D02*
G01*
X114115687Y-83495367D01*
X114254234Y-83587941D01*
X114372059Y-83705766D01*
X114464633Y-83844313D01*
X114528399Y-83998258D01*
X114560907Y-84161685D01*
X114560907Y-84328315D01*
X114528399Y-84491742D01*
X114464633Y-84645687D01*
X114372059Y-84784234D01*
X114254234Y-84902059D01*
X114115687Y-84994633D01*
X113961742Y-85058399D01*
X113798315Y-85090907D01*
X113631685Y-85090907D01*
X113468258Y-85058399D01*
X113314313Y-84994633D01*
X113175766Y-84902059D01*
X113057941Y-84784234D01*
X112965367Y-84645687D01*
X112901601Y-84491742D01*
X112869093Y-84328315D01*
X112869093Y-84161685D01*
X112901601Y-83998258D01*
X112965367Y-83844313D01*
X113057941Y-83705766D01*
X113175766Y-83587941D01*
X113314313Y-83495367D01*
X113468258Y-83431601D01*
X113631685Y-83399093D01*
X113798315Y-83399093D01*
X113961742Y-83431601D01*
G37*
G36*
X116501742Y-83431601D02*
G01*
X116655687Y-83495367D01*
X116794234Y-83587941D01*
X116912059Y-83705766D01*
X117004633Y-83844313D01*
X117068399Y-83998258D01*
X117100907Y-84161685D01*
X117100907Y-84328315D01*
X117068399Y-84491742D01*
X117004633Y-84645687D01*
X116912059Y-84784234D01*
X116794234Y-84902059D01*
X116655687Y-84994633D01*
X116501742Y-85058399D01*
X116338315Y-85090907D01*
X116171685Y-85090907D01*
X116008258Y-85058399D01*
X115854313Y-84994633D01*
X115715766Y-84902059D01*
X115597941Y-84784234D01*
X115505367Y-84645687D01*
X115441601Y-84491742D01*
X115409093Y-84328315D01*
X115409093Y-84161685D01*
X115441601Y-83998258D01*
X115505367Y-83844313D01*
X115597941Y-83705766D01*
X115715766Y-83587941D01*
X115854313Y-83495367D01*
X116008258Y-83431601D01*
X116171685Y-83399093D01*
X116338315Y-83399093D01*
X116501742Y-83431601D01*
G37*
M02*
