%TF.GenerationSoftware,KiCad,Pcbnew,10.0.6*%
%TF.CreationDate,2026-10-09T16:04:15+03:00*%
%TF.ProjectId,analog_filter_module,616e616c-6f67-45f6-9669-6c7465725f6d,rev?*%
%TF.SameCoordinates,Original*%
%TF.FileFunction,Copper,L1,Top*%
%TF.FilePolarity,Positive*%
%FSLAX46Y46*%
G04 Gerber Fmt 4.6, Leading zero omitted, Abs format (unit mm)*
G04 Created by KiCad (PCBNEW 10.0.6) date 2026-10-09 16:04:15*
%MOMM*%
%LPD*%
G01*
G04 APERTURE LIST*
G04 Aperture macros list*
%AMRoundRect*
0 Rectangle with rounded corners*
0 $1 Rounding radius*
0 $2 $3 $4 $5 $6 $7 $8 $9 X,Y pos of 4 corners*
0 Add a 4 corners polygon primitive as box body*
4,1,4,$2,$3,$4,$5,$6,$7,$8,$9,$2,$3,0*
0 Add four circle primitives for the rounded corners*
1,1,$1+$1,$2,$3*
1,1,$1+$1,$4,$5*
1,1,$1+$1,$6,$7*
1,1,$1+$1,$8,$9*
0 Add four rect primitives between the rounded corners*
20,1,$1+$1,$2,$3,$4,$5,0*
20,1,$1+$1,$4,$5,$6,$7,0*
20,1,$1+$1,$6,$7,$8,$9,0*
20,1,$1+$1,$8,$9,$2,$3,0*%
G04 Aperture macros list end*
%TA.AperFunction,ComponentPad*%
%ADD10R,1.700000X1.700000*%
%TD*%
%TA.AperFunction,ComponentPad*%
%ADD11C,1.700000*%
%TD*%
%TA.AperFunction,SMDPad,CuDef*%
%ADD12RoundRect,0.150000X-0.512500X-0.150000X0.512500X-0.150000X0.512500X0.150000X-0.512500X0.150000X0*%
%TD*%
%TA.AperFunction,SMDPad,CuDef*%
%ADD13RoundRect,0.150000X-0.825000X-0.150000X0.825000X-0.150000X0.825000X0.150000X-0.825000X0.150000X0*%
%TD*%
%TA.AperFunction,ComponentPad*%
%ADD14C,1.600000*%
%TD*%
%TA.AperFunction,ComponentPad*%
%ADD15R,1.800000X1.800000*%
%TD*%
%TA.AperFunction,ComponentPad*%
%ADD16C,1.800000*%
%TD*%
%TA.AperFunction,ViaPad*%
%ADD17C,0.600000*%
%TD*%
%TA.AperFunction,Conductor*%
%ADD18C,0.127000*%
%TD*%
%TA.AperFunction,Conductor*%
%ADD19C,0.200000*%
%TD*%
%TA.AperFunction,Conductor*%
%ADD20C,0.400000*%
%TD*%
G04 APERTURE END LIST*
D10*
%TO.P,J2,1,Pin_1_1*%
%TO.N,/IN*%
X114200000Y-98200000D03*
D11*
%TO.P,J2,2,Pin_2_2*%
%TO.N,GND*%
X114200000Y-100740000D03*
%TD*%
D12*
%TO.P,U1,1,VIN_1*%
%TO.N,Net-(J1-Pin_2)*%
X117707500Y-90895000D03*
%TO.P,U1,2,GND_2*%
%TO.N,GND*%
X117707500Y-91845000D03*
%TO.P,U1,3,EN_3*%
%TO.N,Net-(J1-Pin_2)*%
X117707500Y-92795000D03*
%TO.P,U1,4,NC_4*%
%TO.N,unconnected-(U1-NC-Pad4)*%
X119982500Y-92795000D03*
%TO.P,U1,5,VOUT_5*%
%TO.N,3.3V*%
X119982500Y-90895000D03*
%TD*%
D13*
%TO.P,U2,1*%
%TO.N,/FILTER_OUT*%
X122050000Y-113130000D03*
%TO.P,U2,2,-_2*%
X122050000Y-114400000D03*
%TO.P,U2,3,+_3*%
%TO.N,Net-(U2A-+)*%
X122050000Y-115670000D03*
%TO.P,U2,4,V-_4*%
%TO.N,GND*%
X122050000Y-116940000D03*
%TO.P,U2,5,+_5*%
%TO.N,/FILTER_OUT*%
X127000000Y-116940000D03*
%TO.P,U2,6,-_6*%
%TO.N,/OUT*%
X127000000Y-115670000D03*
%TO.P,U2,7*%
X127000000Y-114400000D03*
%TO.P,U2,8,V+_8*%
%TO.N,3.3V*%
X127000000Y-113130000D03*
%TD*%
D14*
%TO.P,C1,1*%
%TO.N,Net-(J1-Pin_2)*%
X113765000Y-93905000D03*
%TO.P,C1,2*%
%TO.N,GND*%
X113765000Y-88905000D03*
%TD*%
%TO.P,C2,1*%
%TO.N,3.3V*%
X128270000Y-89800000D03*
%TO.P,C2,2*%
%TO.N,GND*%
X128270000Y-92300000D03*
%TD*%
%TO.P,C4,1*%
%TO.N,Net-(U2A-+)*%
X117790000Y-107950000D03*
%TO.P,C4,2*%
%TO.N,GND*%
X112790000Y-107950000D03*
%TD*%
D10*
%TO.P,J1,1,Pin_1_1*%
%TO.N,3.3V*%
X118795000Y-84245000D03*
D11*
%TO.P,J1,2,Pin_2_2*%
%TO.N,Net-(J1-Pin_2)*%
X116255000Y-84245000D03*
%TO.P,J1,3,Pin_3_3*%
%TO.N,GND*%
X113715000Y-84245000D03*
%TD*%
D14*
%TO.P,C5,1*%
%TO.N,3.3V*%
X126900000Y-108500000D03*
%TO.P,C5,2*%
%TO.N,GND*%
X121900000Y-108500000D03*
%TD*%
%TO.P,R3,1*%
%TO.N,Net-(C3-Pad1)*%
X127065000Y-102415000D03*
%TO.P,R3,2*%
%TO.N,Net-(U2A-+)*%
X119445000Y-102415000D03*
%TD*%
%TO.P,R2,1*%
%TO.N,/IN*%
X119445000Y-98115000D03*
%TO.P,R2,2*%
%TO.N,Net-(C3-Pad1)*%
X127065000Y-98115000D03*
%TD*%
D10*
%TO.P,J3,1,Pin_1_1*%
%TO.N,/OUT*%
X132385000Y-115685000D03*
D11*
%TO.P,J3,2,Pin_2_2*%
%TO.N,GND*%
X134925000Y-115685000D03*
%TD*%
D14*
%TO.P,C3,1*%
%TO.N,Net-(C3-Pad1)*%
X130315000Y-108685000D03*
%TO.P,C3,2*%
%TO.N,/FILTER_OUT*%
X135315000Y-108685000D03*
%TD*%
%TO.P,R1,1*%
%TO.N,3.3V*%
X128270000Y-84465000D03*
%TO.P,R1,2*%
%TO.N,Net-(D1-A)*%
X135890000Y-84465000D03*
%TD*%
D15*
%TO.P,D1,1,K_1*%
%TO.N,GND*%
X135890000Y-97790000D03*
D16*
%TO.P,D1,2,A_2*%
%TO.N,Net-(D1-A)*%
X135890000Y-95250000D03*
%TD*%
D17*
%TO.N,Net-(J1-Pin_2)*%
X117707500Y-92795000D03*
X117707500Y-90895000D03*
%TO.N,/FILTER_OUT*%
X127000000Y-116940000D03*
X122050000Y-114400000D03*
%TD*%
%TO.N,/IN*%
D18*
X119360000Y-98200000D02*
X119445000Y-98115000D01*
X114200000Y-98200000D02*
X119360000Y-98200000D01*
D19*
X119345000Y-98215000D02*
X119445000Y-98115000D01*
%TO.N,Net-(J1-Pin_2)*%
D20*
X116597500Y-93905000D02*
X117707500Y-92795000D01*
X113765000Y-93905000D02*
X116597500Y-93905000D01*
X117707500Y-85697500D02*
X117707500Y-90895000D01*
X116255000Y-84245000D02*
X117707500Y-85697500D01*
%TO.N,3.3V*%
X128270000Y-84465000D02*
X128270000Y-89800000D01*
X126900000Y-113030000D02*
X127000000Y-113130000D01*
X118795000Y-84245000D02*
X128050000Y-84245000D01*
X118795000Y-84245000D02*
X118795000Y-89707500D01*
D19*
X127000000Y-108600000D02*
X126900000Y-108500000D01*
D20*
X126900000Y-108500000D02*
X126900000Y-113030000D01*
X128050000Y-84245000D02*
X128270000Y-84465000D01*
X118795000Y-89707500D02*
X119982500Y-90895000D01*
%TO.N,/FILTER_OUT*%
D19*
X122050000Y-113130000D02*
X122050000Y-114400000D01*
X127000000Y-116940000D02*
X127660000Y-116940000D01*
%TO.N,Net-(U2A-+)*%
X117790000Y-107950000D02*
X118525000Y-107950000D01*
X120000000Y-110200000D02*
X117790000Y-107990000D01*
X118525000Y-107950000D02*
X119445000Y-107030000D01*
X119445000Y-107030000D02*
X119445000Y-102415000D01*
X122050000Y-115670000D02*
X121075001Y-115670000D01*
X121075001Y-115670000D02*
X120000000Y-114594999D01*
X120000000Y-114594999D02*
X120000000Y-110200000D01*
X117790000Y-107990000D02*
X117790000Y-107950000D01*
%TO.N,/OUT*%
X132370000Y-115670000D02*
X132385000Y-115685000D01*
X126745000Y-115670000D02*
X132370000Y-115670000D01*
X127000000Y-114400000D02*
X127000000Y-115670000D01*
X127015000Y-115685000D02*
X127000000Y-115670000D01*
%TO.N,Net-(C3-Pad1)*%
X127065000Y-105180000D02*
X130570000Y-108685000D01*
X127065000Y-98115000D02*
X127065000Y-102415000D01*
X127065000Y-102415000D02*
X127065000Y-105180000D01*
%TO.N,Net-(D1-A)*%
X135890000Y-84465000D02*
X136000000Y-84575000D01*
X135890000Y-84465000D02*
X135890000Y-96110000D01*
%TD*%
%TA.AperFunction,Conductor*%
%TO.N,GND*%
G36*
X139442539Y-80520185D02*
G01*
X139488294Y-80572989D01*
X139499500Y-80624500D01*
X139499500Y-119375500D01*
X139479815Y-119442539D01*
X139427011Y-119488294D01*
X139375500Y-119499500D01*
X110624500Y-119499500D01*
X110557461Y-119479815D01*
X110511706Y-119427011D01*
X110500500Y-119375500D01*
X110500500Y-117190001D01*
X120577704Y-117190001D01*
X120577899Y-117192486D01*
X120623718Y-117350198D01*
X120707314Y-117491552D01*
X120707321Y-117491561D01*
X120823438Y-117607678D01*
X120823447Y-117607685D01*
X120964803Y-117691282D01*
X120964806Y-117691283D01*
X121122504Y-117737099D01*
X121122510Y-117737100D01*
X121159350Y-117739999D01*
X121159366Y-117740000D01*
X121800000Y-117740000D01*
X122300000Y-117740000D01*
X122940634Y-117740000D01*
X122940649Y-117739999D01*
X122977489Y-117737100D01*
X122977495Y-117737099D01*
X123135193Y-117691283D01*
X123135196Y-117691282D01*
X123276552Y-117607685D01*
X123276561Y-117607678D01*
X123392678Y-117491561D01*
X123392685Y-117491552D01*
X123476281Y-117350198D01*
X123522100Y-117192486D01*
X123522295Y-117190001D01*
X123522295Y-117190000D01*
X122300000Y-117190000D01*
X122300000Y-117740000D01*
X121800000Y-117740000D01*
X121800000Y-117190000D01*
X120577705Y-117190000D01*
X120577704Y-117190001D01*
X110500500Y-117190001D01*
X110500500Y-107847682D01*
X111490000Y-107847682D01*
X111490000Y-108052317D01*
X111522009Y-108254417D01*
X111585244Y-108449031D01*
X111678141Y-108631350D01*
X111678147Y-108631359D01*
X111710523Y-108675921D01*
X111710524Y-108675922D01*
X112390000Y-107996446D01*
X112390000Y-108002661D01*
X112417259Y-108104394D01*
X112469920Y-108195606D01*
X112544394Y-108270080D01*
X112635606Y-108322741D01*
X112737339Y-108350000D01*
X112743553Y-108350000D01*
X112064076Y-109029474D01*
X112108650Y-109061859D01*
X112290968Y-109154755D01*
X112485582Y-109217990D01*
X112687683Y-109250000D01*
X112892317Y-109250000D01*
X113094417Y-109217990D01*
X113289031Y-109154755D01*
X113471349Y-109061859D01*
X113515921Y-109029474D01*
X112836447Y-108350000D01*
X112842661Y-108350000D01*
X112944394Y-108322741D01*
X113035606Y-108270080D01*
X113110080Y-108195606D01*
X113162741Y-108104394D01*
X113190000Y-108002661D01*
X113190000Y-107996447D01*
X113869474Y-108675921D01*
X113901859Y-108631349D01*
X113994755Y-108449031D01*
X114057990Y-108254417D01*
X114090000Y-108052317D01*
X114090000Y-107847682D01*
X114089995Y-107847648D01*
X116489500Y-107847648D01*
X116489500Y-108052351D01*
X116521522Y-108254534D01*
X116584781Y-108449223D01*
X116637486Y-108552661D01*
X116677585Y-108631359D01*
X116677715Y-108631613D01*
X116798028Y-108797213D01*
X116942786Y-108941971D01*
X117063226Y-109029474D01*
X117108390Y-109062287D01*
X117224607Y-109121503D01*
X117290776Y-109155218D01*
X117290778Y-109155218D01*
X117290781Y-109155220D01*
X117380031Y-109184219D01*
X117485465Y-109218477D01*
X117586557Y-109234488D01*
X117687648Y-109250500D01*
X117687649Y-109250500D01*
X117892351Y-109250500D01*
X117892352Y-109250500D01*
X118094534Y-109218477D01*
X118094533Y-109218477D01*
X118096624Y-109218146D01*
X118165917Y-109227100D01*
X118203703Y-109252938D01*
X119363181Y-110412416D01*
X119396666Y-110473739D01*
X119399500Y-110500097D01*
X119399500Y-114508329D01*
X119399499Y-114508347D01*
X119399499Y-114674053D01*
X119399498Y-114674053D01*
X119440423Y-114826785D01*
X119440424Y-114826786D01*
X119465085Y-114869500D01*
X119516933Y-114959304D01*
X119519481Y-114963716D01*
X119638349Y-115082584D01*
X119638355Y-115082589D01*
X120590140Y-116034374D01*
X120590161Y-116034397D01*
X120596683Y-116040919D01*
X120619047Y-116073824D01*
X120619285Y-116073684D01*
X120621517Y-116077459D01*
X120622802Y-116079349D01*
X120623256Y-116080400D01*
X120706916Y-116221861D01*
X120711702Y-116228031D01*
X120709369Y-116229840D01*
X120736210Y-116278995D01*
X120731226Y-116348687D01*
X120710470Y-116381021D01*
X120712097Y-116382283D01*
X120707313Y-116388449D01*
X120623718Y-116529801D01*
X120577899Y-116687513D01*
X120577704Y-116689998D01*
X120577705Y-116690000D01*
X123522295Y-116690000D01*
X123522295Y-116689998D01*
X123522100Y-116687513D01*
X123476281Y-116529801D01*
X123392685Y-116388447D01*
X123387900Y-116382278D01*
X123390366Y-116380364D01*
X123363802Y-116331776D01*
X123368749Y-116262082D01*
X123389856Y-116229232D01*
X123388301Y-116228026D01*
X123393077Y-116221868D01*
X123393081Y-116221865D01*
X123476744Y-116080398D01*
X123522598Y-115922569D01*
X123525500Y-115885694D01*
X123525500Y-115454306D01*
X123522598Y-115417431D01*
X123508489Y-115368869D01*
X123476745Y-115259606D01*
X123476744Y-115259603D01*
X123476744Y-115259602D01*
X123393081Y-115118135D01*
X123393078Y-115118132D01*
X123388298Y-115111969D01*
X123390750Y-115110066D01*
X123364155Y-115061421D01*
X123369104Y-114991726D01*
X123389940Y-114959304D01*
X123388298Y-114958031D01*
X123393075Y-114951870D01*
X123393081Y-114951865D01*
X123476744Y-114810398D01*
X123522598Y-114652569D01*
X123525500Y-114615694D01*
X123525500Y-114184306D01*
X123522598Y-114147431D01*
X123476744Y-113989602D01*
X123393081Y-113848135D01*
X123393078Y-113848132D01*
X123388298Y-113841969D01*
X123390750Y-113840066D01*
X123364155Y-113791421D01*
X123369104Y-113721726D01*
X123389940Y-113689304D01*
X123388298Y-113688031D01*
X123393075Y-113681870D01*
X123393081Y-113681865D01*
X123476744Y-113540398D01*
X123522598Y-113382569D01*
X123525500Y-113345694D01*
X123525500Y-112914306D01*
X123525499Y-112914298D01*
X125524500Y-112914298D01*
X125524500Y-113345701D01*
X125527401Y-113382567D01*
X125527402Y-113382573D01*
X125573254Y-113540393D01*
X125573255Y-113540396D01*
X125656917Y-113681862D01*
X125661702Y-113688031D01*
X125659256Y-113689927D01*
X125685857Y-113738642D01*
X125680873Y-113808334D01*
X125660069Y-113840703D01*
X125661702Y-113841969D01*
X125656917Y-113848137D01*
X125573255Y-113989603D01*
X125573254Y-113989606D01*
X125527402Y-114147426D01*
X125527401Y-114147432D01*
X125524500Y-114184298D01*
X125524500Y-114615701D01*
X125527401Y-114652567D01*
X125527402Y-114652573D01*
X125573254Y-114810393D01*
X125573255Y-114810396D01*
X125573256Y-114810398D01*
X125581329Y-114824049D01*
X125656917Y-114951862D01*
X125661702Y-114958031D01*
X125659256Y-114959927D01*
X125685857Y-115008642D01*
X125680873Y-115078334D01*
X125660069Y-115110703D01*
X125661702Y-115111969D01*
X125656917Y-115118137D01*
X125573255Y-115259603D01*
X125573254Y-115259606D01*
X125527402Y-115417426D01*
X125527401Y-115417432D01*
X125524500Y-115454298D01*
X125524500Y-115885701D01*
X125527401Y-115922567D01*
X125527402Y-115922573D01*
X125573254Y-116080393D01*
X125573255Y-116080396D01*
X125656917Y-116221862D01*
X125661702Y-116228031D01*
X125659256Y-116229927D01*
X125685857Y-116278642D01*
X125680873Y-116348334D01*
X125660069Y-116380703D01*
X125661702Y-116381969D01*
X125656917Y-116388137D01*
X125573255Y-116529603D01*
X125573254Y-116529606D01*
X125527402Y-116687426D01*
X125527401Y-116687432D01*
X125524500Y-116724298D01*
X125524500Y-117155701D01*
X125527401Y-117192567D01*
X125527402Y-117192573D01*
X125573254Y-117350393D01*
X125573255Y-117350396D01*
X125656917Y-117491862D01*
X125656923Y-117491870D01*
X125773129Y-117608076D01*
X125773133Y-117608079D01*
X125773135Y-117608081D01*
X125914602Y-117691744D01*
X125956224Y-117703836D01*
X126072426Y-117737597D01*
X126072429Y-117737597D01*
X126072431Y-117737598D01*
X126109306Y-117740500D01*
X126109314Y-117740500D01*
X127890686Y-117740500D01*
X127890694Y-117740500D01*
X127927569Y-117737598D01*
X127927571Y-117737597D01*
X127927573Y-117737597D01*
X127969191Y-117725505D01*
X128085398Y-117691744D01*
X128226865Y-117608081D01*
X128343081Y-117491865D01*
X128426744Y-117350398D01*
X128472598Y-117192569D01*
X128475500Y-117155694D01*
X128475500Y-116724306D01*
X128472598Y-116687431D01*
X128459539Y-116642483D01*
X128426745Y-116529606D01*
X128426744Y-116529603D01*
X128426744Y-116529602D01*
X128412357Y-116505275D01*
X128384175Y-116457620D01*
X128366992Y-116389896D01*
X128389152Y-116323634D01*
X128443619Y-116279871D01*
X128490907Y-116270500D01*
X130910501Y-116270500D01*
X130977540Y-116290185D01*
X131023295Y-116342989D01*
X131034501Y-116394500D01*
X131034501Y-116582876D01*
X131040908Y-116642483D01*
X131091202Y-116777328D01*
X131091206Y-116777335D01*
X131177452Y-116892544D01*
X131177455Y-116892547D01*
X131292664Y-116978793D01*
X131292671Y-116978797D01*
X131427517Y-117029091D01*
X131427516Y-117029091D01*
X131434444Y-117029835D01*
X131487127Y-117035500D01*
X133282872Y-117035499D01*
X133342483Y-117029091D01*
X133477331Y-116978796D01*
X133592546Y-116892546D01*
X133678796Y-116777331D01*
X133729091Y-116642483D01*
X133735500Y-116582873D01*
X133735499Y-116558979D01*
X133738330Y-116545963D01*
X133748940Y-116526525D01*
X133755179Y-116505275D01*
X133771803Y-116484643D01*
X133771808Y-116484636D01*
X133771811Y-116484634D01*
X133771818Y-116484626D01*
X134442037Y-115814408D01*
X134459075Y-115877993D01*
X134524901Y-115992007D01*
X134617993Y-116085099D01*
X134732007Y-116150925D01*
X134795590Y-116167962D01*
X134163282Y-116800269D01*
X134163282Y-116800270D01*
X134217449Y-116839624D01*
X134406782Y-116936095D01*
X134608870Y-117001757D01*
X134818754Y-117035000D01*
X135031246Y-117035000D01*
X135241127Y-117001757D01*
X135241130Y-117001757D01*
X135443217Y-116936095D01*
X135632554Y-116839622D01*
X135686716Y-116800270D01*
X135686717Y-116800270D01*
X135054408Y-116167962D01*
X135117993Y-116150925D01*
X135232007Y-116085099D01*
X135325099Y-115992007D01*
X135390925Y-115877993D01*
X135407962Y-115814408D01*
X136040270Y-116446717D01*
X136040270Y-116446716D01*
X136079622Y-116392554D01*
X136176095Y-116203217D01*
X136241757Y-116001130D01*
X136241757Y-116001127D01*
X136275000Y-115791246D01*
X136275000Y-115578753D01*
X136241757Y-115368872D01*
X136241757Y-115368869D01*
X136176095Y-115166782D01*
X136079624Y-114977449D01*
X136040270Y-114923282D01*
X136040269Y-114923282D01*
X135407962Y-115555590D01*
X135390925Y-115492007D01*
X135325099Y-115377993D01*
X135232007Y-115284901D01*
X135117993Y-115219075D01*
X135054409Y-115202037D01*
X135686716Y-114569728D01*
X135632550Y-114530375D01*
X135443217Y-114433904D01*
X135241129Y-114368242D01*
X135031246Y-114335000D01*
X134818754Y-114335000D01*
X134608872Y-114368242D01*
X134608869Y-114368242D01*
X134406782Y-114433904D01*
X134217439Y-114530380D01*
X134163282Y-114569727D01*
X134163282Y-114569728D01*
X134795591Y-115202037D01*
X134732007Y-115219075D01*
X134617993Y-115284901D01*
X134524901Y-115377993D01*
X134459075Y-115492007D01*
X134442037Y-115555591D01*
X133771818Y-114885372D01*
X133738333Y-114824049D01*
X133738330Y-114824036D01*
X133735499Y-114811015D01*
X133735499Y-114787128D01*
X133729091Y-114727517D01*
X133700926Y-114652002D01*
X133678798Y-114592673D01*
X133678793Y-114592664D01*
X133592547Y-114477455D01*
X133592544Y-114477452D01*
X133477335Y-114391206D01*
X133477328Y-114391202D01*
X133342482Y-114340908D01*
X133342483Y-114340908D01*
X133282883Y-114334501D01*
X133282881Y-114334500D01*
X133282873Y-114334500D01*
X133282864Y-114334500D01*
X131487129Y-114334500D01*
X131487123Y-114334501D01*
X131427516Y-114340908D01*
X131292671Y-114391202D01*
X131292664Y-114391206D01*
X131177455Y-114477452D01*
X131177452Y-114477455D01*
X131091206Y-114592664D01*
X131091202Y-114592671D01*
X131040908Y-114727517D01*
X131034501Y-114787116D01*
X131034500Y-114787135D01*
X131034500Y-114945500D01*
X131014815Y-115012539D01*
X130962011Y-115058294D01*
X130910500Y-115069500D01*
X128490907Y-115069500D01*
X128423868Y-115049815D01*
X128378113Y-114997011D01*
X128368169Y-114927853D01*
X128384175Y-114882380D01*
X128417052Y-114826786D01*
X128426744Y-114810398D01*
X128472598Y-114652569D01*
X128475500Y-114615694D01*
X128475500Y-114184306D01*
X128472598Y-114147431D01*
X128426744Y-113989602D01*
X128343081Y-113848135D01*
X128343078Y-113848132D01*
X128338298Y-113841969D01*
X128340750Y-113840066D01*
X128314155Y-113791421D01*
X128319104Y-113721726D01*
X128339940Y-113689304D01*
X128338298Y-113688031D01*
X128343075Y-113681870D01*
X128343081Y-113681865D01*
X128426744Y-113540398D01*
X128472598Y-113382569D01*
X128475500Y-113345694D01*
X128475500Y-112914306D01*
X128472598Y-112877431D01*
X128426744Y-112719602D01*
X128343081Y-112578135D01*
X128343079Y-112578133D01*
X128343076Y-112578129D01*
X128226870Y-112461923D01*
X128226862Y-112461917D01*
X128085396Y-112378255D01*
X128085393Y-112378254D01*
X127927573Y-112332402D01*
X127927567Y-112332401D01*
X127890701Y-112329500D01*
X127890694Y-112329500D01*
X127724500Y-112329500D01*
X127657461Y-112309815D01*
X127611706Y-112257011D01*
X127600500Y-112205500D01*
X127600500Y-109661744D01*
X127620185Y-109594705D01*
X127651615Y-109561426D01*
X127747215Y-109491969D01*
X127747215Y-109491968D01*
X127747219Y-109491966D01*
X127891966Y-109347219D01*
X127891968Y-109347215D01*
X127891971Y-109347213D01*
X127944732Y-109274590D01*
X128012287Y-109181610D01*
X128105220Y-108999219D01*
X128168477Y-108804534D01*
X128200500Y-108602352D01*
X128200500Y-108397648D01*
X128177814Y-108254417D01*
X128168477Y-108195465D01*
X128121965Y-108052317D01*
X128105220Y-108000781D01*
X128105218Y-108000778D01*
X128105218Y-108000776D01*
X128071503Y-107934607D01*
X128012287Y-107818390D01*
X127980092Y-107774077D01*
X127891971Y-107652786D01*
X127747213Y-107508028D01*
X127581613Y-107387715D01*
X127581612Y-107387714D01*
X127581610Y-107387713D01*
X127512823Y-107352664D01*
X127399223Y-107294781D01*
X127204534Y-107231522D01*
X127029995Y-107203878D01*
X127002352Y-107199500D01*
X126797648Y-107199500D01*
X126773329Y-107203351D01*
X126595465Y-107231522D01*
X126400776Y-107294781D01*
X126218386Y-107387715D01*
X126052786Y-107508028D01*
X125908028Y-107652786D01*
X125787715Y-107818386D01*
X125694781Y-108000776D01*
X125631522Y-108195465D01*
X125599500Y-108397648D01*
X125599500Y-108602351D01*
X125631522Y-108804534D01*
X125694781Y-108999223D01*
X125758691Y-109124653D01*
X125787585Y-109181359D01*
X125787715Y-109181613D01*
X125908028Y-109347213D01*
X126052784Y-109491969D01*
X126148385Y-109561426D01*
X126191051Y-109616755D01*
X126199500Y-109661744D01*
X126199500Y-112207776D01*
X126179815Y-112274815D01*
X126127011Y-112320570D01*
X126085233Y-112331393D01*
X126072441Y-112332400D01*
X126072426Y-112332402D01*
X125914606Y-112378254D01*
X125914603Y-112378255D01*
X125773137Y-112461917D01*
X125773129Y-112461923D01*
X125656923Y-112578129D01*
X125656917Y-112578137D01*
X125573255Y-112719603D01*
X125573254Y-112719606D01*
X125527402Y-112877426D01*
X125527401Y-112877432D01*
X125524500Y-112914298D01*
X123525499Y-112914298D01*
X123522598Y-112877431D01*
X123476744Y-112719602D01*
X123393081Y-112578135D01*
X123393079Y-112578133D01*
X123393076Y-112578129D01*
X123276870Y-112461923D01*
X123276862Y-112461917D01*
X123135396Y-112378255D01*
X123135393Y-112378254D01*
X122977573Y-112332402D01*
X122977567Y-112332401D01*
X122940701Y-112329500D01*
X122940694Y-112329500D01*
X121159306Y-112329500D01*
X121159298Y-112329500D01*
X121122432Y-112332401D01*
X121122426Y-112332402D01*
X120964606Y-112378254D01*
X120964603Y-112378255D01*
X120823137Y-112461917D01*
X120823129Y-112461923D01*
X120812181Y-112472872D01*
X120750858Y-112506357D01*
X120681166Y-112501373D01*
X120625233Y-112459501D01*
X120600816Y-112394037D01*
X120600500Y-112385191D01*
X120600500Y-110289059D01*
X120600501Y-110289046D01*
X120600501Y-110120945D01*
X120600501Y-110120943D01*
X120559577Y-109968215D01*
X120514546Y-109890220D01*
X120480520Y-109831284D01*
X120368716Y-109719480D01*
X120368715Y-109719479D01*
X120364385Y-109715149D01*
X120364374Y-109715139D01*
X119074415Y-108425180D01*
X119059400Y-108397682D01*
X120600000Y-108397682D01*
X120600000Y-108602317D01*
X120632009Y-108804417D01*
X120695244Y-108999031D01*
X120788141Y-109181350D01*
X120788147Y-109181359D01*
X120820523Y-109225921D01*
X120820524Y-109225922D01*
X121500000Y-108546446D01*
X121500000Y-108552661D01*
X121527259Y-108654394D01*
X121579920Y-108745606D01*
X121654394Y-108820080D01*
X121745606Y-108872741D01*
X121847339Y-108900000D01*
X121853553Y-108900000D01*
X121174076Y-109579474D01*
X121218650Y-109611859D01*
X121400968Y-109704755D01*
X121595582Y-109767990D01*
X121797683Y-109800000D01*
X122002317Y-109800000D01*
X122204417Y-109767990D01*
X122399031Y-109704755D01*
X122581349Y-109611859D01*
X122625921Y-109579474D01*
X121946447Y-108900000D01*
X121952661Y-108900000D01*
X122054394Y-108872741D01*
X122145606Y-108820080D01*
X122220080Y-108745606D01*
X122272741Y-108654394D01*
X122300000Y-108552661D01*
X122300000Y-108546447D01*
X122979474Y-109225921D01*
X123011859Y-109181349D01*
X123104755Y-108999031D01*
X123167990Y-108804417D01*
X123200000Y-108602317D01*
X123200000Y-108397682D01*
X123167990Y-108195582D01*
X123104755Y-108000968D01*
X123011859Y-107818650D01*
X122979474Y-107774077D01*
X122979474Y-107774076D01*
X122300000Y-108453551D01*
X122300000Y-108447339D01*
X122272741Y-108345606D01*
X122220080Y-108254394D01*
X122145606Y-108179920D01*
X122054394Y-108127259D01*
X121952661Y-108100000D01*
X121946446Y-108100000D01*
X122625922Y-107420524D01*
X122625921Y-107420523D01*
X122581359Y-107388147D01*
X122581350Y-107388141D01*
X122399031Y-107295244D01*
X122204417Y-107232009D01*
X122002317Y-107200000D01*
X121797683Y-107200000D01*
X121595582Y-107232009D01*
X121400968Y-107295244D01*
X121218644Y-107388143D01*
X121174077Y-107420523D01*
X121174077Y-107420524D01*
X121853554Y-108100000D01*
X121847339Y-108100000D01*
X121745606Y-108127259D01*
X121654394Y-108179920D01*
X121579920Y-108254394D01*
X121527259Y-108345606D01*
X121500000Y-108447339D01*
X121500000Y-108453553D01*
X120820524Y-107774077D01*
X120820523Y-107774077D01*
X120788143Y-107818644D01*
X120695244Y-108000968D01*
X120632009Y-108195582D01*
X120600000Y-108397682D01*
X119059400Y-108397682D01*
X119040930Y-108363857D01*
X119045914Y-108294165D01*
X119074413Y-108249820D01*
X119803506Y-107520728D01*
X119803511Y-107520724D01*
X119813714Y-107510520D01*
X119813716Y-107510520D01*
X119925520Y-107398716D01*
X119926315Y-107397340D01*
X119985527Y-107294780D01*
X120004577Y-107261784D01*
X120045500Y-107109057D01*
X120045500Y-103644601D01*
X120065185Y-103577562D01*
X120113206Y-103534116D01*
X120126610Y-103527287D01*
X120292219Y-103406966D01*
X120436966Y-103262219D01*
X120436968Y-103262215D01*
X120436971Y-103262213D01*
X120489732Y-103189590D01*
X120557287Y-103096610D01*
X120650220Y-102914219D01*
X120713477Y-102719534D01*
X120745500Y-102517352D01*
X120745500Y-102312648D01*
X120713477Y-102110466D01*
X120650220Y-101915781D01*
X120650218Y-101915778D01*
X120650218Y-101915776D01*
X120616503Y-101849607D01*
X120557287Y-101733390D01*
X120549556Y-101722749D01*
X120436971Y-101567786D01*
X120292213Y-101423028D01*
X120126613Y-101302715D01*
X120126612Y-101302714D01*
X120126610Y-101302713D01*
X120069653Y-101273691D01*
X119944223Y-101209781D01*
X119749534Y-101146522D01*
X119574995Y-101118878D01*
X119547352Y-101114500D01*
X119342648Y-101114500D01*
X119318329Y-101118351D01*
X119140465Y-101146522D01*
X118945776Y-101209781D01*
X118763386Y-101302715D01*
X118597786Y-101423028D01*
X118453028Y-101567786D01*
X118332715Y-101733386D01*
X118239781Y-101915776D01*
X118176522Y-102110465D01*
X118144500Y-102312648D01*
X118144500Y-102517351D01*
X118176522Y-102719534D01*
X118239781Y-102914223D01*
X118332715Y-103096613D01*
X118453028Y-103262213D01*
X118453034Y-103262219D01*
X118597781Y-103406966D01*
X118763390Y-103527287D01*
X118776793Y-103534116D01*
X118827589Y-103582088D01*
X118844500Y-103644601D01*
X118844500Y-106729903D01*
X118824815Y-106796942D01*
X118808185Y-106817579D01*
X118755242Y-106870523D01*
X118729778Y-106895987D01*
X118668454Y-106929471D01*
X118598763Y-106924486D01*
X118569212Y-106908624D01*
X118471609Y-106837712D01*
X118289223Y-106744781D01*
X118094534Y-106681522D01*
X117919995Y-106653878D01*
X117892352Y-106649500D01*
X117687648Y-106649500D01*
X117663329Y-106653351D01*
X117485465Y-106681522D01*
X117290776Y-106744781D01*
X117108386Y-106837715D01*
X116942786Y-106958028D01*
X116798028Y-107102786D01*
X116677715Y-107268386D01*
X116584781Y-107450776D01*
X116521522Y-107645465D01*
X116489500Y-107847648D01*
X114089995Y-107847648D01*
X114057990Y-107645582D01*
X113994755Y-107450968D01*
X113901859Y-107268650D01*
X113869474Y-107224077D01*
X113869474Y-107224076D01*
X113190000Y-107903551D01*
X113190000Y-107897339D01*
X113162741Y-107795606D01*
X113110080Y-107704394D01*
X113035606Y-107629920D01*
X112944394Y-107577259D01*
X112842661Y-107550000D01*
X112836446Y-107550000D01*
X113515922Y-106870524D01*
X113515921Y-106870523D01*
X113471359Y-106838147D01*
X113471350Y-106838141D01*
X113289031Y-106745244D01*
X113094417Y-106682009D01*
X112892317Y-106650000D01*
X112687683Y-106650000D01*
X112485582Y-106682009D01*
X112290968Y-106745244D01*
X112108644Y-106838143D01*
X112064077Y-106870523D01*
X112064077Y-106870524D01*
X112743554Y-107550000D01*
X112737339Y-107550000D01*
X112635606Y-107577259D01*
X112544394Y-107629920D01*
X112469920Y-107704394D01*
X112417259Y-107795606D01*
X112390000Y-107897339D01*
X112390000Y-107903553D01*
X111710524Y-107224077D01*
X111710523Y-107224077D01*
X111678143Y-107268644D01*
X111585244Y-107450968D01*
X111522009Y-107645582D01*
X111490000Y-107847682D01*
X110500500Y-107847682D01*
X110500500Y-97302135D01*
X112849500Y-97302135D01*
X112849500Y-99097870D01*
X112849501Y-99097876D01*
X112855908Y-99157483D01*
X112906202Y-99292328D01*
X112906206Y-99292335D01*
X112992452Y-99407544D01*
X112992455Y-99407547D01*
X113107664Y-99493793D01*
X113107671Y-99493797D01*
X113152618Y-99510561D01*
X113242517Y-99544091D01*
X113302127Y-99550500D01*
X113312685Y-99550499D01*
X113379723Y-99570179D01*
X113400372Y-99586818D01*
X114070591Y-100257037D01*
X114007007Y-100274075D01*
X113892993Y-100339901D01*
X113799901Y-100432993D01*
X113734075Y-100547007D01*
X113717037Y-100610591D01*
X113084728Y-99978282D01*
X113084727Y-99978282D01*
X113045380Y-100032439D01*
X112948904Y-100221782D01*
X112883242Y-100423869D01*
X112883242Y-100423872D01*
X112850000Y-100633753D01*
X112850000Y-100846246D01*
X112883242Y-101056127D01*
X112883242Y-101056130D01*
X112948904Y-101258217D01*
X113045375Y-101447550D01*
X113084728Y-101501716D01*
X113717037Y-100869408D01*
X113734075Y-100932993D01*
X113799901Y-101047007D01*
X113892993Y-101140099D01*
X114007007Y-101205925D01*
X114070590Y-101222962D01*
X113438282Y-101855269D01*
X113438282Y-101855270D01*
X113492449Y-101894624D01*
X113681782Y-101991095D01*
X113883870Y-102056757D01*
X114093754Y-102090000D01*
X114306246Y-102090000D01*
X114516127Y-102056757D01*
X114516130Y-102056757D01*
X114718217Y-101991095D01*
X114907554Y-101894622D01*
X114961716Y-101855270D01*
X114961717Y-101855270D01*
X114329408Y-101222962D01*
X114392993Y-101205925D01*
X114507007Y-101140099D01*
X114600099Y-101047007D01*
X114665925Y-100932993D01*
X114682962Y-100869408D01*
X115315270Y-101501717D01*
X115315270Y-101501716D01*
X115354622Y-101447554D01*
X115451095Y-101258217D01*
X115516757Y-101056130D01*
X115516757Y-101056127D01*
X115550000Y-100846246D01*
X115550000Y-100633753D01*
X115516757Y-100423872D01*
X115516757Y-100423869D01*
X115451095Y-100221782D01*
X115354624Y-100032449D01*
X115315270Y-99978282D01*
X115315269Y-99978282D01*
X114682962Y-100610590D01*
X114665925Y-100547007D01*
X114600099Y-100432993D01*
X114507007Y-100339901D01*
X114392993Y-100274075D01*
X114329409Y-100257037D01*
X114999627Y-99586818D01*
X115060950Y-99553333D01*
X115087307Y-99550499D01*
X115097872Y-99550499D01*
X115157483Y-99544091D01*
X115292331Y-99493796D01*
X115407546Y-99407546D01*
X115493796Y-99292331D01*
X115544091Y-99157483D01*
X115550500Y-99097873D01*
X115550500Y-98888000D01*
X115570185Y-98820961D01*
X115622989Y-98775206D01*
X115674500Y-98764000D01*
X118245839Y-98764000D01*
X118312878Y-98783685D01*
X118346158Y-98815115D01*
X118453034Y-98962219D01*
X118597786Y-99106971D01*
X118712067Y-99189999D01*
X118763390Y-99227287D01*
X118844499Y-99268614D01*
X118945776Y-99320218D01*
X118945778Y-99320218D01*
X118945781Y-99320220D01*
X119020818Y-99344601D01*
X119140465Y-99383477D01*
X119241557Y-99399488D01*
X119342648Y-99415500D01*
X119342649Y-99415500D01*
X119547351Y-99415500D01*
X119547352Y-99415500D01*
X119749534Y-99383477D01*
X119944219Y-99320220D01*
X120126610Y-99227287D01*
X120255899Y-99133354D01*
X120292213Y-99106971D01*
X120292215Y-99106968D01*
X120292219Y-99106966D01*
X120436966Y-98962219D01*
X120436968Y-98962215D01*
X120436971Y-98962213D01*
X120543842Y-98815115D01*
X120557287Y-98796610D01*
X120650220Y-98614219D01*
X120713477Y-98419534D01*
X120745500Y-98217352D01*
X120745500Y-98012648D01*
X125764500Y-98012648D01*
X125764500Y-98217351D01*
X125796522Y-98419534D01*
X125859781Y-98614223D01*
X125922762Y-98737827D01*
X125946127Y-98783685D01*
X125952715Y-98796613D01*
X126073028Y-98962213D01*
X126073034Y-98962219D01*
X126217781Y-99106966D01*
X126383390Y-99227287D01*
X126396793Y-99234116D01*
X126447589Y-99282088D01*
X126464500Y-99344601D01*
X126464500Y-101185397D01*
X126444815Y-101252436D01*
X126396800Y-101295879D01*
X126383389Y-101302712D01*
X126217786Y-101423028D01*
X126073028Y-101567786D01*
X125952715Y-101733386D01*
X125859781Y-101915776D01*
X125796522Y-102110465D01*
X125764500Y-102312648D01*
X125764500Y-102517351D01*
X125796522Y-102719534D01*
X125859781Y-102914223D01*
X125952715Y-103096613D01*
X126073028Y-103262213D01*
X126073034Y-103262219D01*
X126217781Y-103406966D01*
X126383390Y-103527287D01*
X126396793Y-103534116D01*
X126447589Y-103582088D01*
X126464500Y-103644601D01*
X126464500Y-105093330D01*
X126464499Y-105093348D01*
X126464499Y-105259054D01*
X126464498Y-105259054D01*
X126505423Y-105411785D01*
X126534358Y-105461900D01*
X126534359Y-105461904D01*
X126534360Y-105461904D01*
X126584479Y-105548714D01*
X126584481Y-105548717D01*
X126703349Y-105667585D01*
X126703355Y-105667590D01*
X129083928Y-108048164D01*
X129117413Y-108109487D01*
X129112429Y-108179179D01*
X129110807Y-108183300D01*
X129109779Y-108185780D01*
X129046523Y-108380461D01*
X129046523Y-108380464D01*
X129014500Y-108582648D01*
X129014500Y-108787351D01*
X129046522Y-108989534D01*
X129109781Y-109184223D01*
X129202715Y-109366613D01*
X129323028Y-109532213D01*
X129467786Y-109676971D01*
X129622749Y-109789556D01*
X129633390Y-109797287D01*
X129700117Y-109831286D01*
X129815776Y-109890218D01*
X129815778Y-109890218D01*
X129815781Y-109890220D01*
X129920137Y-109924127D01*
X130010465Y-109953477D01*
X130111557Y-109969488D01*
X130212648Y-109985500D01*
X130212649Y-109985500D01*
X130417351Y-109985500D01*
X130417352Y-109985500D01*
X130619534Y-109953477D01*
X130814219Y-109890220D01*
X130996610Y-109797287D01*
X131109678Y-109715139D01*
X131162213Y-109676971D01*
X131162215Y-109676968D01*
X131162219Y-109676966D01*
X131306966Y-109532219D01*
X131306966Y-109532218D01*
X131306970Y-109532215D01*
X131306971Y-109532213D01*
X131359732Y-109459590D01*
X131427287Y-109366610D01*
X131520220Y-109184219D01*
X131583477Y-108989534D01*
X131615500Y-108787352D01*
X131615500Y-108582648D01*
X134014500Y-108582648D01*
X134014500Y-108787351D01*
X134046522Y-108989534D01*
X134109781Y-109184223D01*
X134202715Y-109366613D01*
X134323028Y-109532213D01*
X134467786Y-109676971D01*
X134622749Y-109789556D01*
X134633390Y-109797287D01*
X134700117Y-109831286D01*
X134815776Y-109890218D01*
X134815778Y-109890218D01*
X134815781Y-109890220D01*
X134920137Y-109924127D01*
X135010465Y-109953477D01*
X135111557Y-109969488D01*
X135212648Y-109985500D01*
X135212649Y-109985500D01*
X135417351Y-109985500D01*
X135417352Y-109985500D01*
X135619534Y-109953477D01*
X135814219Y-109890220D01*
X135996610Y-109797287D01*
X136109678Y-109715139D01*
X136162213Y-109676971D01*
X136162215Y-109676968D01*
X136162219Y-109676966D01*
X136306966Y-109532219D01*
X136306966Y-109532218D01*
X136306970Y-109532215D01*
X136306971Y-109532213D01*
X136359732Y-109459590D01*
X136427287Y-109366610D01*
X136520220Y-109184219D01*
X136583477Y-108989534D01*
X136615500Y-108787352D01*
X136615500Y-108582648D01*
X136602410Y-108500000D01*
X136583477Y-108380465D01*
X136523412Y-108195606D01*
X136520220Y-108185781D01*
X136520218Y-108185778D01*
X136520218Y-108185776D01*
X136452234Y-108052352D01*
X136427287Y-108003390D01*
X136388498Y-107950001D01*
X136306971Y-107837786D01*
X136162213Y-107693028D01*
X135996613Y-107572715D01*
X135996612Y-107572714D01*
X135996610Y-107572713D01*
X135894592Y-107520732D01*
X135814223Y-107479781D01*
X135619534Y-107416522D01*
X135440378Y-107388147D01*
X135417352Y-107384500D01*
X135212648Y-107384500D01*
X135193979Y-107387457D01*
X135010465Y-107416522D01*
X134815776Y-107479781D01*
X134633386Y-107572715D01*
X134467786Y-107693028D01*
X134323028Y-107837786D01*
X134202715Y-108003386D01*
X134109781Y-108185776D01*
X134046522Y-108380465D01*
X134014500Y-108582648D01*
X131615500Y-108582648D01*
X131602410Y-108500000D01*
X131583477Y-108380465D01*
X131523412Y-108195606D01*
X131520220Y-108185781D01*
X131520218Y-108185778D01*
X131520218Y-108185776D01*
X131452234Y-108052352D01*
X131427287Y-108003390D01*
X131388498Y-107950001D01*
X131306971Y-107837786D01*
X131162213Y-107693028D01*
X130996613Y-107572715D01*
X130996612Y-107572714D01*
X130996610Y-107572713D01*
X130894592Y-107520732D01*
X130814223Y-107479781D01*
X130619534Y-107416522D01*
X130440378Y-107388147D01*
X130417352Y-107384500D01*
X130212648Y-107384500D01*
X130193977Y-107387456D01*
X130124685Y-107378501D01*
X130086900Y-107352664D01*
X127701819Y-104967583D01*
X127668334Y-104906260D01*
X127665500Y-104879902D01*
X127665500Y-103644601D01*
X127685185Y-103577562D01*
X127733206Y-103534116D01*
X127746610Y-103527287D01*
X127912219Y-103406966D01*
X128056966Y-103262219D01*
X128056968Y-103262215D01*
X128056971Y-103262213D01*
X128109732Y-103189590D01*
X128177287Y-103096610D01*
X128270220Y-102914219D01*
X128333477Y-102719534D01*
X128365500Y-102517352D01*
X128365500Y-102312648D01*
X128333477Y-102110466D01*
X128270220Y-101915781D01*
X128270218Y-101915778D01*
X128270218Y-101915776D01*
X128236503Y-101849607D01*
X128177287Y-101733390D01*
X128169556Y-101722749D01*
X128056971Y-101567786D01*
X127912213Y-101423028D01*
X127746610Y-101302712D01*
X127733200Y-101295879D01*
X127682406Y-101247903D01*
X127665500Y-101185397D01*
X127665500Y-99344601D01*
X127685185Y-99277562D01*
X127733206Y-99234116D01*
X127746610Y-99227287D01*
X127912219Y-99106966D01*
X128056966Y-98962219D01*
X128056968Y-98962215D01*
X128056971Y-98962213D01*
X128163842Y-98815115D01*
X128177287Y-98796610D01*
X128270220Y-98614219D01*
X128333477Y-98419534D01*
X128365500Y-98217352D01*
X128365500Y-98012648D01*
X128333477Y-97810466D01*
X128270220Y-97615781D01*
X128270218Y-97615778D01*
X128270218Y-97615776D01*
X128217341Y-97512000D01*
X128177287Y-97433390D01*
X128169556Y-97422749D01*
X128056971Y-97267786D01*
X127912213Y-97123028D01*
X127746613Y-97002715D01*
X127746612Y-97002714D01*
X127746610Y-97002713D01*
X127689653Y-96973691D01*
X127564223Y-96909781D01*
X127369534Y-96846522D01*
X127194995Y-96818878D01*
X127167352Y-96814500D01*
X126962648Y-96814500D01*
X126938329Y-96818351D01*
X126760465Y-96846522D01*
X126565776Y-96909781D01*
X126383386Y-97002715D01*
X126217786Y-97123028D01*
X126073028Y-97267786D01*
X125952715Y-97433386D01*
X125859781Y-97615776D01*
X125796522Y-97810465D01*
X125764500Y-98012648D01*
X120745500Y-98012648D01*
X120713477Y-97810466D01*
X120650220Y-97615781D01*
X120650218Y-97615778D01*
X120650218Y-97615776D01*
X120597341Y-97512000D01*
X120557287Y-97433390D01*
X120549556Y-97422749D01*
X120436971Y-97267786D01*
X120292213Y-97123028D01*
X120126613Y-97002715D01*
X120126612Y-97002714D01*
X120126610Y-97002713D01*
X120069653Y-96973691D01*
X119944223Y-96909781D01*
X119749534Y-96846522D01*
X119574995Y-96818878D01*
X119547352Y-96814500D01*
X119342648Y-96814500D01*
X119318329Y-96818351D01*
X119140465Y-96846522D01*
X118945776Y-96909781D01*
X118763386Y-97002715D01*
X118597786Y-97123028D01*
X118453028Y-97267786D01*
X118332715Y-97433385D01*
X118300940Y-97495746D01*
X118263974Y-97568296D01*
X118216002Y-97619091D01*
X118153491Y-97636000D01*
X115674499Y-97636000D01*
X115607460Y-97616315D01*
X115561705Y-97563511D01*
X115550499Y-97512000D01*
X115550499Y-97302129D01*
X115550498Y-97302123D01*
X115550497Y-97302116D01*
X115544091Y-97242517D01*
X115493796Y-97107669D01*
X115493795Y-97107668D01*
X115493793Y-97107664D01*
X115407547Y-96992455D01*
X115407544Y-96992452D01*
X115292335Y-96906206D01*
X115292328Y-96906202D01*
X115157482Y-96855908D01*
X115157483Y-96855908D01*
X115097883Y-96849501D01*
X115097881Y-96849500D01*
X115097873Y-96849500D01*
X115097864Y-96849500D01*
X113302129Y-96849500D01*
X113302123Y-96849501D01*
X113242516Y-96855908D01*
X113107671Y-96906202D01*
X113107664Y-96906206D01*
X112992455Y-96992452D01*
X112992452Y-96992455D01*
X112906206Y-97107664D01*
X112906202Y-97107671D01*
X112855908Y-97242517D01*
X112853192Y-97267786D01*
X112849501Y-97302123D01*
X112849500Y-97302135D01*
X110500500Y-97302135D01*
X110500500Y-93802648D01*
X112464500Y-93802648D01*
X112464500Y-94007351D01*
X112496522Y-94209534D01*
X112559781Y-94404223D01*
X112582655Y-94449114D01*
X112648620Y-94578578D01*
X112652715Y-94586613D01*
X112773028Y-94752213D01*
X112917786Y-94896971D01*
X113072749Y-95009556D01*
X113083390Y-95017287D01*
X113199607Y-95076503D01*
X113265776Y-95110218D01*
X113265778Y-95110218D01*
X113265781Y-95110220D01*
X113356751Y-95139778D01*
X113460465Y-95173477D01*
X113561557Y-95189488D01*
X113662648Y-95205500D01*
X113662649Y-95205500D01*
X113867351Y-95205500D01*
X113867352Y-95205500D01*
X114069534Y-95173477D01*
X114173249Y-95139778D01*
X134489500Y-95139778D01*
X134489500Y-95360221D01*
X134523985Y-95577952D01*
X134592103Y-95787603D01*
X134592104Y-95787606D01*
X134692187Y-95984025D01*
X134821752Y-96162358D01*
X134821756Y-96162363D01*
X134872316Y-96212923D01*
X134905801Y-96274246D01*
X134900817Y-96343938D01*
X134858945Y-96399871D01*
X134827969Y-96416785D01*
X134747918Y-96446643D01*
X134747906Y-96446649D01*
X134632812Y-96532809D01*
X134632809Y-96532812D01*
X134546649Y-96647906D01*
X134546645Y-96647913D01*
X134496403Y-96782620D01*
X134496401Y-96782627D01*
X134490000Y-96842155D01*
X134490000Y-97540000D01*
X135514722Y-97540000D01*
X135470667Y-97616306D01*
X135440000Y-97730756D01*
X135440000Y-97849244D01*
X135470667Y-97963694D01*
X135514722Y-98040000D01*
X134490000Y-98040000D01*
X134490000Y-98737844D01*
X134496401Y-98797372D01*
X134496403Y-98797379D01*
X134546645Y-98932086D01*
X134546649Y-98932093D01*
X134632809Y-99047187D01*
X134632812Y-99047190D01*
X134747906Y-99133350D01*
X134747913Y-99133354D01*
X134882620Y-99183596D01*
X134882627Y-99183598D01*
X134942155Y-99189999D01*
X134942172Y-99190000D01*
X135640000Y-99190000D01*
X135640000Y-98165277D01*
X135716306Y-98209333D01*
X135830756Y-98240000D01*
X135949244Y-98240000D01*
X136063694Y-98209333D01*
X136140000Y-98165277D01*
X136140000Y-99190000D01*
X136837828Y-99190000D01*
X136837844Y-99189999D01*
X136897372Y-99183598D01*
X136897379Y-99183596D01*
X137032086Y-99133354D01*
X137032093Y-99133350D01*
X137147187Y-99047190D01*
X137147190Y-99047187D01*
X137233350Y-98932093D01*
X137233354Y-98932086D01*
X137283596Y-98797379D01*
X137283598Y-98797372D01*
X137289999Y-98737844D01*
X137290000Y-98737827D01*
X137290000Y-98040000D01*
X136265278Y-98040000D01*
X136309333Y-97963694D01*
X136340000Y-97849244D01*
X136340000Y-97730756D01*
X136309333Y-97616306D01*
X136265278Y-97540000D01*
X137290000Y-97540000D01*
X137290000Y-96842172D01*
X137289999Y-96842155D01*
X137283598Y-96782627D01*
X137283596Y-96782620D01*
X137233354Y-96647913D01*
X137233350Y-96647906D01*
X137147190Y-96532812D01*
X137147187Y-96532809D01*
X137032093Y-96446649D01*
X137032087Y-96446646D01*
X136952030Y-96416786D01*
X136896097Y-96374914D01*
X136871680Y-96309450D01*
X136886532Y-96241177D01*
X136907681Y-96212925D01*
X136958242Y-96162365D01*
X137087815Y-95984022D01*
X137187895Y-95787606D01*
X137256015Y-95577951D01*
X137290500Y-95360222D01*
X137290500Y-95139778D01*
X137256015Y-94922049D01*
X137200835Y-94752219D01*
X137187896Y-94712396D01*
X137187895Y-94712393D01*
X137133429Y-94605500D01*
X137087815Y-94515978D01*
X137006618Y-94404219D01*
X136958247Y-94337641D01*
X136958243Y-94337636D01*
X136802363Y-94181756D01*
X136802358Y-94181752D01*
X136624023Y-94052185D01*
X136558204Y-94018648D01*
X136507409Y-93970674D01*
X136490500Y-93908164D01*
X136490500Y-85694601D01*
X136510185Y-85627562D01*
X136558206Y-85584116D01*
X136571610Y-85577287D01*
X136737219Y-85456966D01*
X136881966Y-85312219D01*
X136881968Y-85312215D01*
X136881971Y-85312213D01*
X136961694Y-85202482D01*
X137002287Y-85146610D01*
X137095220Y-84964219D01*
X137158477Y-84769534D01*
X137190500Y-84567352D01*
X137190500Y-84362648D01*
X137158477Y-84160466D01*
X137095220Y-83965781D01*
X137095218Y-83965778D01*
X137095218Y-83965776D01*
X137033628Y-83844901D01*
X137002287Y-83783390D01*
X136994556Y-83772749D01*
X136881971Y-83617786D01*
X136737213Y-83473028D01*
X136571613Y-83352715D01*
X136571612Y-83352714D01*
X136571610Y-83352713D01*
X136514653Y-83323691D01*
X136389223Y-83259781D01*
X136194534Y-83196522D01*
X136019995Y-83168878D01*
X135992352Y-83164500D01*
X135787648Y-83164500D01*
X135763329Y-83168351D01*
X135585465Y-83196522D01*
X135390776Y-83259781D01*
X135208386Y-83352715D01*
X135042786Y-83473028D01*
X134898028Y-83617786D01*
X134777715Y-83783386D01*
X134684781Y-83965776D01*
X134621522Y-84160465D01*
X134589500Y-84362648D01*
X134589500Y-84567351D01*
X134621522Y-84769534D01*
X134684781Y-84964223D01*
X134738423Y-85069500D01*
X134775804Y-85142864D01*
X134777715Y-85146613D01*
X134898028Y-85312213D01*
X134898034Y-85312219D01*
X135042781Y-85456966D01*
X135208390Y-85577287D01*
X135221793Y-85584116D01*
X135272589Y-85632088D01*
X135289500Y-85694601D01*
X135289500Y-93908164D01*
X135269815Y-93975203D01*
X135221796Y-94018648D01*
X135155976Y-94052185D01*
X134977641Y-94181752D01*
X134977636Y-94181756D01*
X134821756Y-94337636D01*
X134821752Y-94337641D01*
X134692187Y-94515974D01*
X134592104Y-94712393D01*
X134592103Y-94712396D01*
X134523985Y-94922047D01*
X134489500Y-95139778D01*
X114173249Y-95139778D01*
X114264219Y-95110220D01*
X114446610Y-95017287D01*
X114496144Y-94981298D01*
X114612213Y-94896971D01*
X114612215Y-94896968D01*
X114612219Y-94896966D01*
X114756966Y-94752219D01*
X114826425Y-94656615D01*
X114881755Y-94613949D01*
X114926744Y-94605500D01*
X116666496Y-94605500D01*
X116761459Y-94586610D01*
X116801828Y-94578580D01*
X116865569Y-94552177D01*
X116929307Y-94525777D01*
X116929308Y-94525776D01*
X116929311Y-94525775D01*
X117044043Y-94449114D01*
X117861338Y-93631819D01*
X117922661Y-93598334D01*
X117949019Y-93595500D01*
X118285686Y-93595500D01*
X118285694Y-93595500D01*
X118322569Y-93592598D01*
X118322571Y-93592597D01*
X118322573Y-93592597D01*
X118407269Y-93567990D01*
X118480398Y-93546744D01*
X118621865Y-93463081D01*
X118738081Y-93346865D01*
X118738267Y-93346549D01*
X118738477Y-93346353D01*
X118742861Y-93340702D01*
X118743772Y-93341409D01*
X118789336Y-93298866D01*
X118858077Y-93286362D01*
X118922667Y-93313006D01*
X118946855Y-93340921D01*
X118947139Y-93340702D01*
X118951179Y-93345911D01*
X118951732Y-93346548D01*
X118951919Y-93346865D01*
X118951921Y-93346867D01*
X118951923Y-93346870D01*
X119068129Y-93463076D01*
X119068133Y-93463079D01*
X119068135Y-93463081D01*
X119209602Y-93546744D01*
X119251224Y-93558836D01*
X119367426Y-93592597D01*
X119367429Y-93592597D01*
X119367431Y-93592598D01*
X119404306Y-93595500D01*
X119404314Y-93595500D01*
X120560686Y-93595500D01*
X120560694Y-93595500D01*
X120597569Y-93592598D01*
X120597571Y-93592597D01*
X120597573Y-93592597D01*
X120682269Y-93567990D01*
X120755398Y-93546744D01*
X120896865Y-93463081D01*
X121013081Y-93346865D01*
X121013268Y-93346550D01*
X121059074Y-93269095D01*
X121059074Y-93269094D01*
X121096744Y-93205398D01*
X121142598Y-93047569D01*
X121145500Y-93010694D01*
X121145500Y-92579306D01*
X121142598Y-92542431D01*
X121096744Y-92384602D01*
X121013081Y-92243135D01*
X121013078Y-92243132D01*
X121013076Y-92243129D01*
X120896870Y-92126923D01*
X120896862Y-92126917D01*
X120755396Y-92043255D01*
X120755393Y-92043254D01*
X120597573Y-91997402D01*
X120597567Y-91997401D01*
X120560701Y-91994500D01*
X120560694Y-91994500D01*
X119404306Y-91994500D01*
X119404298Y-91994500D01*
X119367432Y-91997401D01*
X119367426Y-91997402D01*
X119209606Y-92043254D01*
X119209603Y-92043255D01*
X119068137Y-92126917D01*
X119061969Y-92131702D01*
X119060664Y-92130019D01*
X119008954Y-92158246D01*
X118939263Y-92153251D01*
X118891558Y-92121247D01*
X118867296Y-92095000D01*
X118601815Y-92095000D01*
X118538694Y-92077732D01*
X118480396Y-92043255D01*
X118480393Y-92043254D01*
X118322573Y-91997402D01*
X118322567Y-91997401D01*
X118285701Y-91994500D01*
X118285694Y-91994500D01*
X117129306Y-91994500D01*
X117129298Y-91994500D01*
X117092432Y-91997401D01*
X117092426Y-91997402D01*
X116934606Y-92043254D01*
X116934603Y-92043255D01*
X116876306Y-92077732D01*
X116813185Y-92095000D01*
X116547705Y-92095000D01*
X116547704Y-92095001D01*
X116547899Y-92097488D01*
X116547900Y-92097494D01*
X116593716Y-92255193D01*
X116593720Y-92255203D01*
X116594427Y-92256398D01*
X116594695Y-92257454D01*
X116596816Y-92262356D01*
X116596024Y-92262698D01*
X116611603Y-92324123D01*
X116595993Y-92377284D01*
X116596355Y-92377441D01*
X116595087Y-92380369D01*
X116594427Y-92382620D01*
X116593259Y-92384594D01*
X116593254Y-92384607D01*
X116547402Y-92542426D01*
X116547401Y-92542432D01*
X116544500Y-92579298D01*
X116544500Y-92915981D01*
X116524815Y-92983020D01*
X116508181Y-93003662D01*
X116343662Y-93168181D01*
X116282339Y-93201666D01*
X116255981Y-93204500D01*
X114926744Y-93204500D01*
X114859705Y-93184815D01*
X114826425Y-93153384D01*
X114756969Y-93057784D01*
X114612213Y-92913028D01*
X114446613Y-92792715D01*
X114446612Y-92792714D01*
X114446610Y-92792713D01*
X114389653Y-92763691D01*
X114264223Y-92699781D01*
X114069534Y-92636522D01*
X113894995Y-92608878D01*
X113867352Y-92604500D01*
X113662648Y-92604500D01*
X113638329Y-92608351D01*
X113460465Y-92636522D01*
X113265776Y-92699781D01*
X113083386Y-92792715D01*
X112917786Y-92913028D01*
X112773028Y-93057786D01*
X112652715Y-93223386D01*
X112559781Y-93405776D01*
X112496522Y-93600465D01*
X112464500Y-93802648D01*
X110500500Y-93802648D01*
X110500500Y-88802682D01*
X112465000Y-88802682D01*
X112465000Y-89007317D01*
X112497009Y-89209417D01*
X112560244Y-89404031D01*
X112653141Y-89586350D01*
X112653147Y-89586359D01*
X112685523Y-89630921D01*
X112685524Y-89630922D01*
X113365000Y-88951446D01*
X113365000Y-88957661D01*
X113392259Y-89059394D01*
X113444920Y-89150606D01*
X113519394Y-89225080D01*
X113610606Y-89277741D01*
X113712339Y-89305000D01*
X113718553Y-89305000D01*
X113039076Y-89984474D01*
X113083650Y-90016859D01*
X113265968Y-90109755D01*
X113460582Y-90172990D01*
X113662683Y-90205000D01*
X113867317Y-90205000D01*
X114069417Y-90172990D01*
X114264031Y-90109755D01*
X114446349Y-90016859D01*
X114490921Y-89984474D01*
X113811447Y-89305000D01*
X113817661Y-89305000D01*
X113919394Y-89277741D01*
X114010606Y-89225080D01*
X114085080Y-89150606D01*
X114137741Y-89059394D01*
X114165000Y-88957661D01*
X114165000Y-88951447D01*
X114844474Y-89630921D01*
X114876859Y-89586349D01*
X114969755Y-89404031D01*
X115032990Y-89209417D01*
X115065000Y-89007317D01*
X115065000Y-88802682D01*
X115032990Y-88600582D01*
X114969755Y-88405968D01*
X114876859Y-88223650D01*
X114844474Y-88179077D01*
X114844474Y-88179076D01*
X114165000Y-88858551D01*
X114165000Y-88852339D01*
X114137741Y-88750606D01*
X114085080Y-88659394D01*
X114010606Y-88584920D01*
X113919394Y-88532259D01*
X113817661Y-88505000D01*
X113811446Y-88505000D01*
X114490922Y-87825524D01*
X114490921Y-87825523D01*
X114446359Y-87793147D01*
X114446350Y-87793141D01*
X114264031Y-87700244D01*
X114069417Y-87637009D01*
X113867317Y-87605000D01*
X113662683Y-87605000D01*
X113460582Y-87637009D01*
X113265968Y-87700244D01*
X113083644Y-87793143D01*
X113039077Y-87825523D01*
X113039077Y-87825524D01*
X113718554Y-88505000D01*
X113712339Y-88505000D01*
X113610606Y-88532259D01*
X113519394Y-88584920D01*
X113444920Y-88659394D01*
X113392259Y-88750606D01*
X113365000Y-88852339D01*
X113365000Y-88858553D01*
X112685524Y-88179077D01*
X112685523Y-88179077D01*
X112653143Y-88223644D01*
X112560244Y-88405968D01*
X112497009Y-88600582D01*
X112465000Y-88802682D01*
X110500500Y-88802682D01*
X110500500Y-84138753D01*
X112365000Y-84138753D01*
X112365000Y-84351246D01*
X112398242Y-84561127D01*
X112398242Y-84561130D01*
X112463904Y-84763217D01*
X112560375Y-84952550D01*
X112599728Y-85006716D01*
X113232037Y-84374408D01*
X113249075Y-84437993D01*
X113314901Y-84552007D01*
X113407993Y-84645099D01*
X113522007Y-84710925D01*
X113585590Y-84727962D01*
X112953282Y-85360269D01*
X112953282Y-85360270D01*
X113007449Y-85399624D01*
X113196782Y-85496095D01*
X113398870Y-85561757D01*
X113608754Y-85595000D01*
X113821246Y-85595000D01*
X114031127Y-85561757D01*
X114031130Y-85561757D01*
X114233217Y-85496095D01*
X114422554Y-85399622D01*
X114476716Y-85360270D01*
X114476717Y-85360270D01*
X113844408Y-84727962D01*
X113907993Y-84710925D01*
X114022007Y-84645099D01*
X114115099Y-84552007D01*
X114180925Y-84437993D01*
X114197962Y-84374409D01*
X114830270Y-85006717D01*
X114830270Y-85006716D01*
X114869622Y-84952555D01*
X114874232Y-84943507D01*
X114922205Y-84892709D01*
X114990025Y-84875912D01*
X115056161Y-84898447D01*
X115095204Y-84943504D01*
X115099949Y-84952817D01*
X115224890Y-85124786D01*
X115375213Y-85275109D01*
X115547179Y-85400048D01*
X115547181Y-85400049D01*
X115547184Y-85400051D01*
X115736588Y-85496557D01*
X115938757Y-85562246D01*
X116148713Y-85595500D01*
X116148714Y-85595500D01*
X116361286Y-85595500D01*
X116361287Y-85595500D01*
X116517771Y-85570715D01*
X116587064Y-85579670D01*
X116624850Y-85605507D01*
X116970681Y-85951338D01*
X117004166Y-86012661D01*
X117007000Y-86039019D01*
X117007000Y-90030473D01*
X116987315Y-90097512D01*
X116940568Y-90138018D01*
X116941317Y-90139285D01*
X116793137Y-90226917D01*
X116793129Y-90226923D01*
X116676923Y-90343129D01*
X116676917Y-90343137D01*
X116593255Y-90484603D01*
X116593254Y-90484606D01*
X116547402Y-90642426D01*
X116547401Y-90642432D01*
X116544500Y-90679298D01*
X116544500Y-91110701D01*
X116547401Y-91147567D01*
X116547402Y-91147573D01*
X116593254Y-91305393D01*
X116593256Y-91305399D01*
X116594426Y-91307377D01*
X116594869Y-91309126D01*
X116596353Y-91312554D01*
X116595799Y-91312793D01*
X116611603Y-91375102D01*
X116596249Y-91427395D01*
X116596817Y-91427641D01*
X116594827Y-91432239D01*
X116594428Y-91433599D01*
X116593722Y-91434791D01*
X116593716Y-91434806D01*
X116547900Y-91592505D01*
X116547899Y-91592511D01*
X116547704Y-91594998D01*
X116547705Y-91595000D01*
X116813185Y-91595000D01*
X116876306Y-91612268D01*
X116934602Y-91646744D01*
X116976224Y-91658836D01*
X117092426Y-91692597D01*
X117092429Y-91692597D01*
X117092431Y-91692598D01*
X117129306Y-91695500D01*
X117129314Y-91695500D01*
X118285686Y-91695500D01*
X118285694Y-91695500D01*
X118322569Y-91692598D01*
X118322571Y-91692597D01*
X118322573Y-91692597D01*
X118364191Y-91680505D01*
X118480398Y-91646744D01*
X118538694Y-91612268D01*
X118601815Y-91595000D01*
X118867294Y-91595000D01*
X118891557Y-91568752D01*
X118951518Y-91532885D01*
X119021352Y-91535129D01*
X119061012Y-91559530D01*
X119061969Y-91558298D01*
X119068132Y-91563078D01*
X119068135Y-91563081D01*
X119209602Y-91646744D01*
X119251224Y-91658836D01*
X119367426Y-91692597D01*
X119367429Y-91692597D01*
X119367431Y-91692598D01*
X119404306Y-91695500D01*
X119404314Y-91695500D01*
X120560686Y-91695500D01*
X120560694Y-91695500D01*
X120597569Y-91692598D01*
X120597571Y-91692597D01*
X120597573Y-91692597D01*
X120639191Y-91680505D01*
X120755398Y-91646744D01*
X120896865Y-91563081D01*
X121013081Y-91446865D01*
X121096744Y-91305398D01*
X121142598Y-91147569D01*
X121145500Y-91110694D01*
X121145500Y-90679306D01*
X121142598Y-90642431D01*
X121096744Y-90484602D01*
X121013081Y-90343135D01*
X121013079Y-90343133D01*
X121013076Y-90343129D01*
X120896870Y-90226923D01*
X120896862Y-90226917D01*
X120755396Y-90143255D01*
X120755393Y-90143254D01*
X120597573Y-90097402D01*
X120597567Y-90097401D01*
X120560701Y-90094500D01*
X120560694Y-90094500D01*
X120224019Y-90094500D01*
X120156980Y-90074815D01*
X120136338Y-90058181D01*
X119531819Y-89453662D01*
X119498334Y-89392339D01*
X119495500Y-89365981D01*
X119495500Y-85719499D01*
X119515185Y-85652460D01*
X119567989Y-85606705D01*
X119619500Y-85595499D01*
X119692871Y-85595499D01*
X119692872Y-85595499D01*
X119752483Y-85589091D01*
X119887331Y-85538796D01*
X120002546Y-85452546D01*
X120088796Y-85337331D01*
X120139091Y-85202483D01*
X120145500Y-85142873D01*
X120145500Y-85069500D01*
X120165185Y-85002461D01*
X120217989Y-84956706D01*
X120269500Y-84945500D01*
X126979255Y-84945500D01*
X127046294Y-84965185D01*
X127089739Y-85013204D01*
X127146593Y-85124786D01*
X127157715Y-85146614D01*
X127278028Y-85312213D01*
X127422784Y-85456969D01*
X127518385Y-85526426D01*
X127561051Y-85581755D01*
X127569500Y-85626744D01*
X127569500Y-88638255D01*
X127549815Y-88705294D01*
X127518385Y-88738573D01*
X127422787Y-88808028D01*
X127422782Y-88808032D01*
X127278028Y-88952786D01*
X127157715Y-89118386D01*
X127064781Y-89300776D01*
X127001522Y-89495465D01*
X126969500Y-89697648D01*
X126969500Y-89902351D01*
X127001522Y-90104534D01*
X127064781Y-90299223D01*
X127157715Y-90481613D01*
X127278028Y-90647213D01*
X127422786Y-90791971D01*
X127588385Y-90912284D01*
X127588387Y-90912285D01*
X127588390Y-90912287D01*
X127642378Y-90939795D01*
X127693174Y-90987769D01*
X127709969Y-91055590D01*
X127687432Y-91121725D01*
X127642378Y-91160765D01*
X127588644Y-91188143D01*
X127544077Y-91220523D01*
X127544077Y-91220524D01*
X128223554Y-91900000D01*
X128217339Y-91900000D01*
X128115606Y-91927259D01*
X128024394Y-91979920D01*
X127949920Y-92054394D01*
X127897259Y-92145606D01*
X127870000Y-92247339D01*
X127870000Y-92253553D01*
X127190524Y-91574077D01*
X127190523Y-91574077D01*
X127158143Y-91618644D01*
X127065244Y-91800968D01*
X127002009Y-91995582D01*
X126970000Y-92197682D01*
X126970000Y-92402317D01*
X127002009Y-92604417D01*
X127065244Y-92799031D01*
X127158141Y-92981350D01*
X127158147Y-92981359D01*
X127190523Y-93025921D01*
X127190524Y-93025922D01*
X127870000Y-92346446D01*
X127870000Y-92352661D01*
X127897259Y-92454394D01*
X127949920Y-92545606D01*
X128024394Y-92620080D01*
X128115606Y-92672741D01*
X128217339Y-92700000D01*
X128223553Y-92700000D01*
X127544076Y-93379474D01*
X127588650Y-93411859D01*
X127770968Y-93504755D01*
X127965582Y-93567990D01*
X128167683Y-93600000D01*
X128372317Y-93600000D01*
X128574417Y-93567990D01*
X128769031Y-93504755D01*
X128951349Y-93411859D01*
X128995921Y-93379474D01*
X128316447Y-92700000D01*
X128322661Y-92700000D01*
X128424394Y-92672741D01*
X128515606Y-92620080D01*
X128590080Y-92545606D01*
X128642741Y-92454394D01*
X128670000Y-92352661D01*
X128670000Y-92346448D01*
X129349474Y-93025922D01*
X129349474Y-93025921D01*
X129381859Y-92981349D01*
X129474755Y-92799031D01*
X129537990Y-92604417D01*
X129570000Y-92402317D01*
X129570000Y-92197682D01*
X129537990Y-91995582D01*
X129474755Y-91800968D01*
X129381859Y-91618650D01*
X129349474Y-91574077D01*
X129349474Y-91574076D01*
X128670000Y-92253551D01*
X128670000Y-92247339D01*
X128642741Y-92145606D01*
X128590080Y-92054394D01*
X128515606Y-91979920D01*
X128424394Y-91927259D01*
X128322661Y-91900000D01*
X128316446Y-91900000D01*
X128995922Y-91220524D01*
X128995921Y-91220523D01*
X128951359Y-91188147D01*
X128951350Y-91188141D01*
X128897621Y-91160765D01*
X128846825Y-91112791D01*
X128830030Y-91044970D01*
X128852567Y-90978835D01*
X128897621Y-90939795D01*
X128951610Y-90912287D01*
X129001144Y-90876298D01*
X129117213Y-90791971D01*
X129117215Y-90791968D01*
X129117219Y-90791966D01*
X129261966Y-90647219D01*
X129261968Y-90647215D01*
X129261971Y-90647213D01*
X129380112Y-90484603D01*
X129382287Y-90481610D01*
X129475220Y-90299219D01*
X129538477Y-90104534D01*
X129570500Y-89902352D01*
X129570500Y-89697648D01*
X129538477Y-89495465D01*
X129496405Y-89365981D01*
X129475220Y-89300781D01*
X129475218Y-89300778D01*
X129475218Y-89300776D01*
X129436648Y-89225080D01*
X129382287Y-89118390D01*
X129374556Y-89107749D01*
X129261971Y-88952786D01*
X129117217Y-88808032D01*
X129117212Y-88808028D01*
X129021615Y-88738573D01*
X128978949Y-88683243D01*
X128970500Y-88638255D01*
X128970500Y-85626744D01*
X128990185Y-85559705D01*
X129021615Y-85526426D01*
X129117215Y-85456969D01*
X129117215Y-85456968D01*
X129117219Y-85456966D01*
X129261966Y-85312219D01*
X129261968Y-85312215D01*
X129261971Y-85312213D01*
X129341694Y-85202482D01*
X129382287Y-85146610D01*
X129475220Y-84964219D01*
X129538477Y-84769534D01*
X129570500Y-84567352D01*
X129570500Y-84362648D01*
X129538477Y-84160466D01*
X129475220Y-83965781D01*
X129475218Y-83965778D01*
X129475218Y-83965776D01*
X129413628Y-83844901D01*
X129382287Y-83783390D01*
X129374556Y-83772749D01*
X129261971Y-83617786D01*
X129117213Y-83473028D01*
X128951613Y-83352715D01*
X128951612Y-83352714D01*
X128951610Y-83352713D01*
X128894653Y-83323691D01*
X128769223Y-83259781D01*
X128574534Y-83196522D01*
X128399995Y-83168878D01*
X128372352Y-83164500D01*
X128167648Y-83164500D01*
X128143329Y-83168351D01*
X127965465Y-83196522D01*
X127770776Y-83259781D01*
X127588386Y-83352715D01*
X127422786Y-83473028D01*
X127422782Y-83473032D01*
X127387634Y-83508181D01*
X127326311Y-83541666D01*
X127299953Y-83544500D01*
X120269499Y-83544500D01*
X120202460Y-83524815D01*
X120156705Y-83472011D01*
X120145499Y-83420500D01*
X120145499Y-83347129D01*
X120145498Y-83347123D01*
X120139091Y-83287516D01*
X120088797Y-83152671D01*
X120088793Y-83152664D01*
X120002547Y-83037455D01*
X120002544Y-83037452D01*
X119887335Y-82951206D01*
X119887328Y-82951202D01*
X119752482Y-82900908D01*
X119752483Y-82900908D01*
X119692883Y-82894501D01*
X119692881Y-82894500D01*
X119692873Y-82894500D01*
X119692864Y-82894500D01*
X117897129Y-82894500D01*
X117897123Y-82894501D01*
X117837516Y-82900908D01*
X117702671Y-82951202D01*
X117702664Y-82951206D01*
X117587455Y-83037452D01*
X117587452Y-83037455D01*
X117501206Y-83152664D01*
X117501203Y-83152669D01*
X117452189Y-83284083D01*
X117410317Y-83340016D01*
X117344853Y-83364433D01*
X117276580Y-83349581D01*
X117248326Y-83328430D01*
X117134786Y-83214890D01*
X116962820Y-83089951D01*
X116773414Y-82993444D01*
X116773413Y-82993443D01*
X116773412Y-82993443D01*
X116571243Y-82927754D01*
X116571241Y-82927753D01*
X116571240Y-82927753D01*
X116409957Y-82902208D01*
X116361287Y-82894500D01*
X116148713Y-82894500D01*
X116100042Y-82902208D01*
X115938760Y-82927753D01*
X115736585Y-82993444D01*
X115547179Y-83089951D01*
X115375213Y-83214890D01*
X115224890Y-83365213D01*
X115099949Y-83537182D01*
X115095202Y-83546499D01*
X115047227Y-83597293D01*
X114979405Y-83614087D01*
X114913271Y-83591548D01*
X114874234Y-83546495D01*
X114869626Y-83537452D01*
X114830270Y-83483282D01*
X114830269Y-83483282D01*
X114197962Y-84115590D01*
X114180925Y-84052007D01*
X114115099Y-83937993D01*
X114022007Y-83844901D01*
X113907993Y-83779075D01*
X113844409Y-83762037D01*
X114476716Y-83129728D01*
X114422550Y-83090375D01*
X114233217Y-82993904D01*
X114031129Y-82928242D01*
X113821246Y-82895000D01*
X113608754Y-82895000D01*
X113398872Y-82928242D01*
X113398869Y-82928242D01*
X113196782Y-82993904D01*
X113007439Y-83090380D01*
X112953282Y-83129727D01*
X112953282Y-83129728D01*
X113585591Y-83762037D01*
X113522007Y-83779075D01*
X113407993Y-83844901D01*
X113314901Y-83937993D01*
X113249075Y-84052007D01*
X113232037Y-84115591D01*
X112599728Y-83483282D01*
X112599727Y-83483282D01*
X112560380Y-83537439D01*
X112463904Y-83726782D01*
X112398242Y-83928869D01*
X112398242Y-83928872D01*
X112365000Y-84138753D01*
X110500500Y-84138753D01*
X110500500Y-80624500D01*
X110520185Y-80557461D01*
X110572989Y-80511706D01*
X110624500Y-80500500D01*
X139375500Y-80500500D01*
X139442539Y-80520185D01*
G37*
%TD.AperFunction*%
%TD*%
M02*
