M48
; DRILL file KiCad 10.0.6 date 2026-10-09T16:04:19
; FORMAT={-:-/ absolute / metric / decimal}
; #@! TF.CreationDate,2026-10-09T16:04:19+03:00
; #@! TF.GenerationSoftware,Kicad,Pcbnew,10.0.6
; #@! TF.FileFunction,Plated,1,4,PTH
FMAT,2
METRIC
; #@! TA.AperFunction,Plated,PTH,ViaDrill
T1C0.300
; #@! TA.AperFunction,Plated,PTH,ComponentDrill
T2C0.800
; #@! TA.AperFunction,Plated,PTH,ComponentDrill
T3C0.900
; #@! TA.AperFunction,Plated,PTH,ComponentDrill
T4C1.000
%
G90
G05
T1
X117.707Y-90.895
X117.707Y-92.795
X122.05Y-114.4
X127.0Y-116.94
T2
X112.79Y-107.95
X113.765Y-88.905
X113.765Y-93.905
X117.79Y-107.95
X119.445Y-98.115
X119.445Y-102.415
X121.9Y-108.5
X126.9Y-108.5
X127.065Y-98.115
X127.065Y-102.415
X128.27Y-84.465
X128.27Y-89.8
X128.27Y-92.3
X130.315Y-108.685
X135.315Y-108.685
X135.89Y-84.465
T3
X135.89Y-95.25
X135.89Y-97.79
T4
X113.715Y-84.245
X114.2Y-98.2
X114.2Y-100.74
X116.255Y-84.245
X118.795Y-84.245
X132.385Y-115.685
X134.925Y-115.685
M30
