%TF.GenerationSoftware,KiCad,Pcbnew,10.0.6*%
%TF.CreationDate,2026-10-09T16:04:15+03:00*%
%TF.ProjectId,analog_filter_module,616e616c-6f67-45f6-9669-6c7465725f6d,rev?*%
%TF.SameCoordinates,Original*%
%TF.FileFunction,Legend,Top*%
%TF.FilePolarity,Positive*%
%FSLAX46Y46*%
G04 Gerber Fmt 4.6, Leading zero omitted, Abs format (unit mm)*
G04 Created by KiCad (PCBNEW 10.0.6) date 2026-10-09 16:04:15*
%MOMM*%
%LPD*%
G01*
G04 APERTURE LIST*
%ADD10C,0.100000*%
%ADD11C,0.125000*%
%ADD12C,0.200000*%
%ADD13C,0.260000*%
%ADD14C,0.120000*%
G04 APERTURE END LIST*
D10*
X111027580Y-97403884D02*
X112027580Y-97403884D01*
X111027580Y-97880074D02*
X112027580Y-97880074D01*
X112027580Y-97880074D02*
X111027580Y-98451502D01*
X111027580Y-98451502D02*
X112027580Y-98451502D01*
X111979961Y-100327693D02*
X112027580Y-100232455D01*
X112027580Y-100232455D02*
X112027580Y-100089598D01*
X112027580Y-100089598D02*
X111979961Y-99946741D01*
X111979961Y-99946741D02*
X111884723Y-99851503D01*
X111884723Y-99851503D02*
X111789485Y-99803884D01*
X111789485Y-99803884D02*
X111599009Y-99756265D01*
X111599009Y-99756265D02*
X111456152Y-99756265D01*
X111456152Y-99756265D02*
X111265676Y-99803884D01*
X111265676Y-99803884D02*
X111170438Y-99851503D01*
X111170438Y-99851503D02*
X111075200Y-99946741D01*
X111075200Y-99946741D02*
X111027580Y-100089598D01*
X111027580Y-100089598D02*
X111027580Y-100184836D01*
X111027580Y-100184836D02*
X111075200Y-100327693D01*
X111075200Y-100327693D02*
X111122819Y-100375312D01*
X111122819Y-100375312D02*
X111456152Y-100375312D01*
X111456152Y-100375312D02*
X111456152Y-100184836D01*
X111027580Y-100803884D02*
X112027580Y-100803884D01*
X112027580Y-100803884D02*
X111027580Y-101375312D01*
X111027580Y-101375312D02*
X112027580Y-101375312D01*
X111027580Y-101851503D02*
X112027580Y-101851503D01*
X112027580Y-101851503D02*
X112027580Y-102089598D01*
X112027580Y-102089598D02*
X111979961Y-102232455D01*
X111979961Y-102232455D02*
X111884723Y-102327693D01*
X111884723Y-102327693D02*
X111789485Y-102375312D01*
X111789485Y-102375312D02*
X111599009Y-102422931D01*
X111599009Y-102422931D02*
X111456152Y-102422931D01*
X111456152Y-102422931D02*
X111265676Y-102375312D01*
X111265676Y-102375312D02*
X111170438Y-102327693D01*
X111170438Y-102327693D02*
X111075200Y-102232455D01*
X111075200Y-102232455D02*
X111027580Y-102089598D01*
X111027580Y-102089598D02*
X111027580Y-101851503D01*
X111151503Y-117982419D02*
X111341979Y-117982419D01*
X111341979Y-117982419D02*
X111437217Y-117934800D01*
X111437217Y-117934800D02*
X111484836Y-117887180D01*
X111484836Y-117887180D02*
X111580074Y-117744323D01*
X111580074Y-117744323D02*
X111627693Y-117553847D01*
X111627693Y-117553847D02*
X111627693Y-117172895D01*
X111627693Y-117172895D02*
X111580074Y-117077657D01*
X111580074Y-117077657D02*
X111532455Y-117030038D01*
X111532455Y-117030038D02*
X111437217Y-116982419D01*
X111437217Y-116982419D02*
X111246741Y-116982419D01*
X111246741Y-116982419D02*
X111151503Y-117030038D01*
X111151503Y-117030038D02*
X111103884Y-117077657D01*
X111103884Y-117077657D02*
X111056265Y-117172895D01*
X111056265Y-117172895D02*
X111056265Y-117410990D01*
X111056265Y-117410990D02*
X111103884Y-117506228D01*
X111103884Y-117506228D02*
X111151503Y-117553847D01*
X111151503Y-117553847D02*
X111246741Y-117601466D01*
X111246741Y-117601466D02*
X111437217Y-117601466D01*
X111437217Y-117601466D02*
X111532455Y-117553847D01*
X111532455Y-117553847D02*
X111580074Y-117506228D01*
X111580074Y-117506228D02*
X111627693Y-117410990D01*
X112770550Y-116934800D02*
X111913408Y-118220514D01*
X113627693Y-117982419D02*
X113056265Y-117982419D01*
X113341979Y-117982419D02*
X113341979Y-116982419D01*
X113341979Y-116982419D02*
X113246741Y-117125276D01*
X113246741Y-117125276D02*
X113151503Y-117220514D01*
X113151503Y-117220514D02*
X113056265Y-117268133D01*
X114246741Y-116982419D02*
X114341979Y-116982419D01*
X114341979Y-116982419D02*
X114437217Y-117030038D01*
X114437217Y-117030038D02*
X114484836Y-117077657D01*
X114484836Y-117077657D02*
X114532455Y-117172895D01*
X114532455Y-117172895D02*
X114580074Y-117363371D01*
X114580074Y-117363371D02*
X114580074Y-117601466D01*
X114580074Y-117601466D02*
X114532455Y-117791942D01*
X114532455Y-117791942D02*
X114484836Y-117887180D01*
X114484836Y-117887180D02*
X114437217Y-117934800D01*
X114437217Y-117934800D02*
X114341979Y-117982419D01*
X114341979Y-117982419D02*
X114246741Y-117982419D01*
X114246741Y-117982419D02*
X114151503Y-117934800D01*
X114151503Y-117934800D02*
X114103884Y-117887180D01*
X114103884Y-117887180D02*
X114056265Y-117791942D01*
X114056265Y-117791942D02*
X114008646Y-117601466D01*
X114008646Y-117601466D02*
X114008646Y-117363371D01*
X114008646Y-117363371D02*
X114056265Y-117172895D01*
X114056265Y-117172895D02*
X114103884Y-117077657D01*
X114103884Y-117077657D02*
X114151503Y-117030038D01*
X114151503Y-117030038D02*
X114246741Y-116982419D01*
X115722931Y-116934800D02*
X114865789Y-118220514D01*
X116008646Y-117077657D02*
X116056265Y-117030038D01*
X116056265Y-117030038D02*
X116151503Y-116982419D01*
X116151503Y-116982419D02*
X116389598Y-116982419D01*
X116389598Y-116982419D02*
X116484836Y-117030038D01*
X116484836Y-117030038D02*
X116532455Y-117077657D01*
X116532455Y-117077657D02*
X116580074Y-117172895D01*
X116580074Y-117172895D02*
X116580074Y-117268133D01*
X116580074Y-117268133D02*
X116532455Y-117410990D01*
X116532455Y-117410990D02*
X115961027Y-117982419D01*
X115961027Y-117982419D02*
X116580074Y-117982419D01*
X117437217Y-116982419D02*
X117246741Y-116982419D01*
X117246741Y-116982419D02*
X117151503Y-117030038D01*
X117151503Y-117030038D02*
X117103884Y-117077657D01*
X117103884Y-117077657D02*
X117008646Y-117220514D01*
X117008646Y-117220514D02*
X116961027Y-117410990D01*
X116961027Y-117410990D02*
X116961027Y-117791942D01*
X116961027Y-117791942D02*
X117008646Y-117887180D01*
X117008646Y-117887180D02*
X117056265Y-117934800D01*
X117056265Y-117934800D02*
X117151503Y-117982419D01*
X117151503Y-117982419D02*
X117341979Y-117982419D01*
X117341979Y-117982419D02*
X117437217Y-117934800D01*
X117437217Y-117934800D02*
X117484836Y-117887180D01*
X117484836Y-117887180D02*
X117532455Y-117791942D01*
X117532455Y-117791942D02*
X117532455Y-117553847D01*
X117532455Y-117553847D02*
X117484836Y-117458609D01*
X117484836Y-117458609D02*
X117437217Y-117410990D01*
X117437217Y-117410990D02*
X117341979Y-117363371D01*
X117341979Y-117363371D02*
X117151503Y-117363371D01*
X117151503Y-117363371D02*
X117056265Y-117410990D01*
X117056265Y-117410990D02*
X117008646Y-117458609D01*
X117008646Y-117458609D02*
X116961027Y-117553847D01*
X112097693Y-81120038D02*
X112002455Y-81072419D01*
X112002455Y-81072419D02*
X111859598Y-81072419D01*
X111859598Y-81072419D02*
X111716741Y-81120038D01*
X111716741Y-81120038D02*
X111621503Y-81215276D01*
X111621503Y-81215276D02*
X111573884Y-81310514D01*
X111573884Y-81310514D02*
X111526265Y-81500990D01*
X111526265Y-81500990D02*
X111526265Y-81643847D01*
X111526265Y-81643847D02*
X111573884Y-81834323D01*
X111573884Y-81834323D02*
X111621503Y-81929561D01*
X111621503Y-81929561D02*
X111716741Y-82024800D01*
X111716741Y-82024800D02*
X111859598Y-82072419D01*
X111859598Y-82072419D02*
X111954836Y-82072419D01*
X111954836Y-82072419D02*
X112097693Y-82024800D01*
X112097693Y-82024800D02*
X112145312Y-81977180D01*
X112145312Y-81977180D02*
X112145312Y-81643847D01*
X112145312Y-81643847D02*
X111954836Y-81643847D01*
X112573884Y-82072419D02*
X112573884Y-81072419D01*
X112573884Y-81072419D02*
X113145312Y-82072419D01*
X113145312Y-82072419D02*
X113145312Y-81072419D01*
X113621503Y-82072419D02*
X113621503Y-81072419D01*
X113621503Y-81072419D02*
X113859598Y-81072419D01*
X113859598Y-81072419D02*
X114002455Y-81120038D01*
X114002455Y-81120038D02*
X114097693Y-81215276D01*
X114097693Y-81215276D02*
X114145312Y-81310514D01*
X114145312Y-81310514D02*
X114192931Y-81500990D01*
X114192931Y-81500990D02*
X114192931Y-81643847D01*
X114192931Y-81643847D02*
X114145312Y-81834323D01*
X114145312Y-81834323D02*
X114097693Y-81929561D01*
X114097693Y-81929561D02*
X114002455Y-82024800D01*
X114002455Y-82024800D02*
X113859598Y-82072419D01*
X113859598Y-82072419D02*
X113621503Y-82072419D01*
X114961027Y-81072419D02*
X115294360Y-82072419D01*
X115294360Y-82072419D02*
X115627693Y-81072419D01*
X116532455Y-81977180D02*
X116484836Y-82024800D01*
X116484836Y-82024800D02*
X116341979Y-82072419D01*
X116341979Y-82072419D02*
X116246741Y-82072419D01*
X116246741Y-82072419D02*
X116103884Y-82024800D01*
X116103884Y-82024800D02*
X116008646Y-81929561D01*
X116008646Y-81929561D02*
X115961027Y-81834323D01*
X115961027Y-81834323D02*
X115913408Y-81643847D01*
X115913408Y-81643847D02*
X115913408Y-81500990D01*
X115913408Y-81500990D02*
X115961027Y-81310514D01*
X115961027Y-81310514D02*
X116008646Y-81215276D01*
X116008646Y-81215276D02*
X116103884Y-81120038D01*
X116103884Y-81120038D02*
X116246741Y-81072419D01*
X116246741Y-81072419D02*
X116341979Y-81072419D01*
X116341979Y-81072419D02*
X116484836Y-81120038D01*
X116484836Y-81120038D02*
X116532455Y-81167657D01*
X117532455Y-81977180D02*
X117484836Y-82024800D01*
X117484836Y-82024800D02*
X117341979Y-82072419D01*
X117341979Y-82072419D02*
X117246741Y-82072419D01*
X117246741Y-82072419D02*
X117103884Y-82024800D01*
X117103884Y-82024800D02*
X117008646Y-81929561D01*
X117008646Y-81929561D02*
X116961027Y-81834323D01*
X116961027Y-81834323D02*
X116913408Y-81643847D01*
X116913408Y-81643847D02*
X116913408Y-81500990D01*
X116913408Y-81500990D02*
X116961027Y-81310514D01*
X116961027Y-81310514D02*
X117008646Y-81215276D01*
X117008646Y-81215276D02*
X117103884Y-81120038D01*
X117103884Y-81120038D02*
X117246741Y-81072419D01*
X117246741Y-81072419D02*
X117341979Y-81072419D01*
X117341979Y-81072419D02*
X117484836Y-81120038D01*
X117484836Y-81120038D02*
X117532455Y-81167657D01*
X118278646Y-81072419D02*
X118897693Y-81072419D01*
X118897693Y-81072419D02*
X118564360Y-81453371D01*
X118564360Y-81453371D02*
X118707217Y-81453371D01*
X118707217Y-81453371D02*
X118802455Y-81500990D01*
X118802455Y-81500990D02*
X118850074Y-81548609D01*
X118850074Y-81548609D02*
X118897693Y-81643847D01*
X118897693Y-81643847D02*
X118897693Y-81881942D01*
X118897693Y-81881942D02*
X118850074Y-81977180D01*
X118850074Y-81977180D02*
X118802455Y-82024800D01*
X118802455Y-82024800D02*
X118707217Y-82072419D01*
X118707217Y-82072419D02*
X118421503Y-82072419D01*
X118421503Y-82072419D02*
X118326265Y-82024800D01*
X118326265Y-82024800D02*
X118278646Y-81977180D01*
X119326265Y-81977180D02*
X119373884Y-82024800D01*
X119373884Y-82024800D02*
X119326265Y-82072419D01*
X119326265Y-82072419D02*
X119278646Y-82024800D01*
X119278646Y-82024800D02*
X119326265Y-81977180D01*
X119326265Y-81977180D02*
X119326265Y-82072419D01*
X119707217Y-81072419D02*
X120326264Y-81072419D01*
X120326264Y-81072419D02*
X119992931Y-81453371D01*
X119992931Y-81453371D02*
X120135788Y-81453371D01*
X120135788Y-81453371D02*
X120231026Y-81500990D01*
X120231026Y-81500990D02*
X120278645Y-81548609D01*
X120278645Y-81548609D02*
X120326264Y-81643847D01*
X120326264Y-81643847D02*
X120326264Y-81881942D01*
X120326264Y-81881942D02*
X120278645Y-81977180D01*
X120278645Y-81977180D02*
X120231026Y-82024800D01*
X120231026Y-82024800D02*
X120135788Y-82072419D01*
X120135788Y-82072419D02*
X119850074Y-82072419D01*
X119850074Y-82072419D02*
X119754836Y-82024800D01*
X119754836Y-82024800D02*
X119707217Y-81977180D01*
X120611979Y-81072419D02*
X120945312Y-82072419D01*
X120945312Y-82072419D02*
X121278645Y-81072419D01*
X131094360Y-118172419D02*
X131284836Y-118172419D01*
X131284836Y-118172419D02*
X131380074Y-118220038D01*
X131380074Y-118220038D02*
X131475312Y-118315276D01*
X131475312Y-118315276D02*
X131522931Y-118505752D01*
X131522931Y-118505752D02*
X131522931Y-118839085D01*
X131522931Y-118839085D02*
X131475312Y-119029561D01*
X131475312Y-119029561D02*
X131380074Y-119124800D01*
X131380074Y-119124800D02*
X131284836Y-119172419D01*
X131284836Y-119172419D02*
X131094360Y-119172419D01*
X131094360Y-119172419D02*
X130999122Y-119124800D01*
X130999122Y-119124800D02*
X130903884Y-119029561D01*
X130903884Y-119029561D02*
X130856265Y-118839085D01*
X130856265Y-118839085D02*
X130856265Y-118505752D01*
X130856265Y-118505752D02*
X130903884Y-118315276D01*
X130903884Y-118315276D02*
X130999122Y-118220038D01*
X130999122Y-118220038D02*
X131094360Y-118172419D01*
X131951503Y-118172419D02*
X131951503Y-118981942D01*
X131951503Y-118981942D02*
X131999122Y-119077180D01*
X131999122Y-119077180D02*
X132046741Y-119124800D01*
X132046741Y-119124800D02*
X132141979Y-119172419D01*
X132141979Y-119172419D02*
X132332455Y-119172419D01*
X132332455Y-119172419D02*
X132427693Y-119124800D01*
X132427693Y-119124800D02*
X132475312Y-119077180D01*
X132475312Y-119077180D02*
X132522931Y-118981942D01*
X132522931Y-118981942D02*
X132522931Y-118172419D01*
X132856265Y-118172419D02*
X133427693Y-118172419D01*
X133141979Y-119172419D02*
X133141979Y-118172419D01*
X134727693Y-118220038D02*
X134632455Y-118172419D01*
X134632455Y-118172419D02*
X134489598Y-118172419D01*
X134489598Y-118172419D02*
X134346741Y-118220038D01*
X134346741Y-118220038D02*
X134251503Y-118315276D01*
X134251503Y-118315276D02*
X134203884Y-118410514D01*
X134203884Y-118410514D02*
X134156265Y-118600990D01*
X134156265Y-118600990D02*
X134156265Y-118743847D01*
X134156265Y-118743847D02*
X134203884Y-118934323D01*
X134203884Y-118934323D02*
X134251503Y-119029561D01*
X134251503Y-119029561D02*
X134346741Y-119124800D01*
X134346741Y-119124800D02*
X134489598Y-119172419D01*
X134489598Y-119172419D02*
X134584836Y-119172419D01*
X134584836Y-119172419D02*
X134727693Y-119124800D01*
X134727693Y-119124800D02*
X134775312Y-119077180D01*
X134775312Y-119077180D02*
X134775312Y-118743847D01*
X134775312Y-118743847D02*
X134584836Y-118743847D01*
X135203884Y-119172419D02*
X135203884Y-118172419D01*
X135203884Y-118172419D02*
X135775312Y-119172419D01*
X135775312Y-119172419D02*
X135775312Y-118172419D01*
X136251503Y-119172419D02*
X136251503Y-118172419D01*
X136251503Y-118172419D02*
X136489598Y-118172419D01*
X136489598Y-118172419D02*
X136632455Y-118220038D01*
X136632455Y-118220038D02*
X136727693Y-118315276D01*
X136727693Y-118315276D02*
X136775312Y-118410514D01*
X136775312Y-118410514D02*
X136822931Y-118600990D01*
X136822931Y-118600990D02*
X136822931Y-118743847D01*
X136822931Y-118743847D02*
X136775312Y-118934323D01*
X136775312Y-118934323D02*
X136727693Y-119029561D01*
X136727693Y-119029561D02*
X136632455Y-119124800D01*
X136632455Y-119124800D02*
X136489598Y-119172419D01*
X136489598Y-119172419D02*
X136251503Y-119172419D01*
D11*
X123444140Y-109871119D02*
X122872712Y-109871119D01*
X123158426Y-109871119D02*
X123158426Y-108871119D01*
X123158426Y-108871119D02*
X123063188Y-109013976D01*
X123063188Y-109013976D02*
X122967950Y-109109214D01*
X122967950Y-109109214D02*
X122872712Y-109156833D01*
X124063188Y-108871119D02*
X124158426Y-108871119D01*
X124158426Y-108871119D02*
X124253664Y-108918738D01*
X124253664Y-108918738D02*
X124301283Y-108966357D01*
X124301283Y-108966357D02*
X124348902Y-109061595D01*
X124348902Y-109061595D02*
X124396521Y-109252071D01*
X124396521Y-109252071D02*
X124396521Y-109490166D01*
X124396521Y-109490166D02*
X124348902Y-109680642D01*
X124348902Y-109680642D02*
X124301283Y-109775880D01*
X124301283Y-109775880D02*
X124253664Y-109823500D01*
X124253664Y-109823500D02*
X124158426Y-109871119D01*
X124158426Y-109871119D02*
X124063188Y-109871119D01*
X124063188Y-109871119D02*
X123967950Y-109823500D01*
X123967950Y-109823500D02*
X123920331Y-109775880D01*
X123920331Y-109775880D02*
X123872712Y-109680642D01*
X123872712Y-109680642D02*
X123825093Y-109490166D01*
X123825093Y-109490166D02*
X123825093Y-109252071D01*
X123825093Y-109252071D02*
X123872712Y-109061595D01*
X123872712Y-109061595D02*
X123920331Y-108966357D01*
X123920331Y-108966357D02*
X123967950Y-108918738D01*
X123967950Y-108918738D02*
X124063188Y-108871119D01*
X125015569Y-108871119D02*
X125110807Y-108871119D01*
X125110807Y-108871119D02*
X125206045Y-108918738D01*
X125206045Y-108918738D02*
X125253664Y-108966357D01*
X125253664Y-108966357D02*
X125301283Y-109061595D01*
X125301283Y-109061595D02*
X125348902Y-109252071D01*
X125348902Y-109252071D02*
X125348902Y-109490166D01*
X125348902Y-109490166D02*
X125301283Y-109680642D01*
X125301283Y-109680642D02*
X125253664Y-109775880D01*
X125253664Y-109775880D02*
X125206045Y-109823500D01*
X125206045Y-109823500D02*
X125110807Y-109871119D01*
X125110807Y-109871119D02*
X125015569Y-109871119D01*
X125015569Y-109871119D02*
X124920331Y-109823500D01*
X124920331Y-109823500D02*
X124872712Y-109775880D01*
X124872712Y-109775880D02*
X124825093Y-109680642D01*
X124825093Y-109680642D02*
X124777474Y-109490166D01*
X124777474Y-109490166D02*
X124777474Y-109252071D01*
X124777474Y-109252071D02*
X124825093Y-109061595D01*
X124825093Y-109061595D02*
X124872712Y-108966357D01*
X124872712Y-108966357D02*
X124920331Y-108918738D01*
X124920331Y-108918738D02*
X125015569Y-108871119D01*
X125777474Y-109204452D02*
X125777474Y-109871119D01*
X125777474Y-109299690D02*
X125825093Y-109252071D01*
X125825093Y-109252071D02*
X125920331Y-109204452D01*
X125920331Y-109204452D02*
X126063188Y-109204452D01*
X126063188Y-109204452D02*
X126158426Y-109252071D01*
X126158426Y-109252071D02*
X126206045Y-109347309D01*
X126206045Y-109347309D02*
X126206045Y-109871119D01*
X125766357Y-92287287D02*
X125718738Y-92239668D01*
X125718738Y-92239668D02*
X125671119Y-92144430D01*
X125671119Y-92144430D02*
X125671119Y-91906335D01*
X125671119Y-91906335D02*
X125718738Y-91811097D01*
X125718738Y-91811097D02*
X125766357Y-91763478D01*
X125766357Y-91763478D02*
X125861595Y-91715859D01*
X125861595Y-91715859D02*
X125956833Y-91715859D01*
X125956833Y-91715859D02*
X126099690Y-91763478D01*
X126099690Y-91763478D02*
X126671119Y-92334906D01*
X126671119Y-92334906D02*
X126671119Y-91715859D01*
X126575880Y-91287287D02*
X126623500Y-91239668D01*
X126623500Y-91239668D02*
X126671119Y-91287287D01*
X126671119Y-91287287D02*
X126623500Y-91334906D01*
X126623500Y-91334906D02*
X126575880Y-91287287D01*
X126575880Y-91287287D02*
X126671119Y-91287287D01*
X125766357Y-90858716D02*
X125718738Y-90811097D01*
X125718738Y-90811097D02*
X125671119Y-90715859D01*
X125671119Y-90715859D02*
X125671119Y-90477764D01*
X125671119Y-90477764D02*
X125718738Y-90382526D01*
X125718738Y-90382526D02*
X125766357Y-90334907D01*
X125766357Y-90334907D02*
X125861595Y-90287288D01*
X125861595Y-90287288D02*
X125956833Y-90287288D01*
X125956833Y-90287288D02*
X126099690Y-90334907D01*
X126099690Y-90334907D02*
X126671119Y-90906335D01*
X126671119Y-90906335D02*
X126671119Y-90287288D01*
X126004452Y-89430145D02*
X126671119Y-89430145D01*
X126004452Y-89858716D02*
X126528261Y-89858716D01*
X126528261Y-89858716D02*
X126623500Y-89811097D01*
X126623500Y-89811097D02*
X126671119Y-89715859D01*
X126671119Y-89715859D02*
X126671119Y-89573002D01*
X126671119Y-89573002D02*
X126623500Y-89477764D01*
X126623500Y-89477764D02*
X126575880Y-89430145D01*
D12*
X114793482Y-109767219D02*
X114222054Y-109767219D01*
X114507768Y-109767219D02*
X114507768Y-108767219D01*
X114507768Y-108767219D02*
X114412530Y-108910076D01*
X114412530Y-108910076D02*
X114317292Y-109005314D01*
X114317292Y-109005314D02*
X114222054Y-109052933D01*
X115698244Y-108767219D02*
X115222054Y-108767219D01*
X115222054Y-108767219D02*
X115174435Y-109243409D01*
X115174435Y-109243409D02*
X115222054Y-109195790D01*
X115222054Y-109195790D02*
X115317292Y-109148171D01*
X115317292Y-109148171D02*
X115555387Y-109148171D01*
X115555387Y-109148171D02*
X115650625Y-109195790D01*
X115650625Y-109195790D02*
X115698244Y-109243409D01*
X115698244Y-109243409D02*
X115745863Y-109338647D01*
X115745863Y-109338647D02*
X115745863Y-109576742D01*
X115745863Y-109576742D02*
X115698244Y-109671980D01*
X115698244Y-109671980D02*
X115650625Y-109719600D01*
X115650625Y-109719600D02*
X115555387Y-109767219D01*
X115555387Y-109767219D02*
X115317292Y-109767219D01*
X115317292Y-109767219D02*
X115222054Y-109719600D01*
X115222054Y-109719600D02*
X115174435Y-109671980D01*
X116174435Y-109100552D02*
X116174435Y-109767219D01*
X116174435Y-109195790D02*
X116222054Y-109148171D01*
X116222054Y-109148171D02*
X116317292Y-109100552D01*
X116317292Y-109100552D02*
X116460149Y-109100552D01*
X116460149Y-109100552D02*
X116555387Y-109148171D01*
X116555387Y-109148171D02*
X116603006Y-109243409D01*
X116603006Y-109243409D02*
X116603006Y-109767219D01*
X122718482Y-98502219D02*
X122147054Y-98502219D01*
X122432768Y-98502219D02*
X122432768Y-97502219D01*
X122432768Y-97502219D02*
X122337530Y-97645076D01*
X122337530Y-97645076D02*
X122242292Y-97740314D01*
X122242292Y-97740314D02*
X122147054Y-97787933D01*
X123337530Y-97502219D02*
X123432768Y-97502219D01*
X123432768Y-97502219D02*
X123528006Y-97549838D01*
X123528006Y-97549838D02*
X123575625Y-97597457D01*
X123575625Y-97597457D02*
X123623244Y-97692695D01*
X123623244Y-97692695D02*
X123670863Y-97883171D01*
X123670863Y-97883171D02*
X123670863Y-98121266D01*
X123670863Y-98121266D02*
X123623244Y-98311742D01*
X123623244Y-98311742D02*
X123575625Y-98406980D01*
X123575625Y-98406980D02*
X123528006Y-98454600D01*
X123528006Y-98454600D02*
X123432768Y-98502219D01*
X123432768Y-98502219D02*
X123337530Y-98502219D01*
X123337530Y-98502219D02*
X123242292Y-98454600D01*
X123242292Y-98454600D02*
X123194673Y-98406980D01*
X123194673Y-98406980D02*
X123147054Y-98311742D01*
X123147054Y-98311742D02*
X123099435Y-98121266D01*
X123099435Y-98121266D02*
X123099435Y-97883171D01*
X123099435Y-97883171D02*
X123147054Y-97692695D01*
X123147054Y-97692695D02*
X123194673Y-97597457D01*
X123194673Y-97597457D02*
X123242292Y-97549838D01*
X123242292Y-97549838D02*
X123337530Y-97502219D01*
X124099435Y-98502219D02*
X124099435Y-97502219D01*
X124194673Y-98121266D02*
X124480387Y-98502219D01*
X124480387Y-97835552D02*
X124099435Y-98216504D01*
X122818482Y-102902219D02*
X122247054Y-102902219D01*
X122532768Y-102902219D02*
X122532768Y-101902219D01*
X122532768Y-101902219D02*
X122437530Y-102045076D01*
X122437530Y-102045076D02*
X122342292Y-102140314D01*
X122342292Y-102140314D02*
X122247054Y-102187933D01*
X123437530Y-101902219D02*
X123532768Y-101902219D01*
X123532768Y-101902219D02*
X123628006Y-101949838D01*
X123628006Y-101949838D02*
X123675625Y-101997457D01*
X123675625Y-101997457D02*
X123723244Y-102092695D01*
X123723244Y-102092695D02*
X123770863Y-102283171D01*
X123770863Y-102283171D02*
X123770863Y-102521266D01*
X123770863Y-102521266D02*
X123723244Y-102711742D01*
X123723244Y-102711742D02*
X123675625Y-102806980D01*
X123675625Y-102806980D02*
X123628006Y-102854600D01*
X123628006Y-102854600D02*
X123532768Y-102902219D01*
X123532768Y-102902219D02*
X123437530Y-102902219D01*
X123437530Y-102902219D02*
X123342292Y-102854600D01*
X123342292Y-102854600D02*
X123294673Y-102806980D01*
X123294673Y-102806980D02*
X123247054Y-102711742D01*
X123247054Y-102711742D02*
X123199435Y-102521266D01*
X123199435Y-102521266D02*
X123199435Y-102283171D01*
X123199435Y-102283171D02*
X123247054Y-102092695D01*
X123247054Y-102092695D02*
X123294673Y-101997457D01*
X123294673Y-101997457D02*
X123342292Y-101949838D01*
X123342292Y-101949838D02*
X123437530Y-101902219D01*
X124199435Y-102902219D02*
X124199435Y-101902219D01*
X124294673Y-102521266D02*
X124580387Y-102902219D01*
X124580387Y-102235552D02*
X124199435Y-102616504D01*
X131903482Y-84962219D02*
X131332054Y-84962219D01*
X131617768Y-84962219D02*
X131617768Y-83962219D01*
X131617768Y-83962219D02*
X131522530Y-84105076D01*
X131522530Y-84105076D02*
X131427292Y-84200314D01*
X131427292Y-84200314D02*
X131332054Y-84247933D01*
X132332054Y-84962219D02*
X132332054Y-83962219D01*
X132427292Y-84581266D02*
X132713006Y-84962219D01*
X132713006Y-84295552D02*
X132332054Y-84676504D01*
X132318482Y-110402219D02*
X131747054Y-110402219D01*
X132032768Y-110402219D02*
X132032768Y-109402219D01*
X132032768Y-109402219D02*
X131937530Y-109545076D01*
X131937530Y-109545076D02*
X131842292Y-109640314D01*
X131842292Y-109640314D02*
X131747054Y-109687933D01*
X133223244Y-109402219D02*
X132747054Y-109402219D01*
X132747054Y-109402219D02*
X132699435Y-109878409D01*
X132699435Y-109878409D02*
X132747054Y-109830790D01*
X132747054Y-109830790D02*
X132842292Y-109783171D01*
X132842292Y-109783171D02*
X133080387Y-109783171D01*
X133080387Y-109783171D02*
X133175625Y-109830790D01*
X133175625Y-109830790D02*
X133223244Y-109878409D01*
X133223244Y-109878409D02*
X133270863Y-109973647D01*
X133270863Y-109973647D02*
X133270863Y-110211742D01*
X133270863Y-110211742D02*
X133223244Y-110306980D01*
X133223244Y-110306980D02*
X133175625Y-110354600D01*
X133175625Y-110354600D02*
X133080387Y-110402219D01*
X133080387Y-110402219D02*
X132842292Y-110402219D01*
X132842292Y-110402219D02*
X132747054Y-110354600D01*
X132747054Y-110354600D02*
X132699435Y-110306980D01*
X133699435Y-109735552D02*
X133699435Y-110402219D01*
X133699435Y-109830790D02*
X133747054Y-109783171D01*
X133747054Y-109783171D02*
X133842292Y-109735552D01*
X133842292Y-109735552D02*
X133985149Y-109735552D01*
X133985149Y-109735552D02*
X134080387Y-109783171D01*
X134080387Y-109783171D02*
X134128006Y-109878409D01*
X134128006Y-109878409D02*
X134128006Y-110402219D01*
X135360149Y-100167219D02*
X135550625Y-100167219D01*
X135550625Y-100167219D02*
X135645863Y-100214838D01*
X135645863Y-100214838D02*
X135741101Y-100310076D01*
X135741101Y-100310076D02*
X135788720Y-100500552D01*
X135788720Y-100500552D02*
X135788720Y-100833885D01*
X135788720Y-100833885D02*
X135741101Y-101024361D01*
X135741101Y-101024361D02*
X135645863Y-101119600D01*
X135645863Y-101119600D02*
X135550625Y-101167219D01*
X135550625Y-101167219D02*
X135360149Y-101167219D01*
X135360149Y-101167219D02*
X135264911Y-101119600D01*
X135264911Y-101119600D02*
X135169673Y-101024361D01*
X135169673Y-101024361D02*
X135122054Y-100833885D01*
X135122054Y-100833885D02*
X135122054Y-100500552D01*
X135122054Y-100500552D02*
X135169673Y-100310076D01*
X135169673Y-100310076D02*
X135264911Y-100214838D01*
X135264911Y-100214838D02*
X135360149Y-100167219D01*
X136217292Y-101167219D02*
X136217292Y-100167219D01*
X136217292Y-100167219D02*
X136788720Y-101167219D01*
X136788720Y-101167219D02*
X136788720Y-100167219D01*
X114092219Y-91701517D02*
X114092219Y-92272945D01*
X114092219Y-91987231D02*
X113092219Y-91987231D01*
X113092219Y-91987231D02*
X113235076Y-92082469D01*
X113235076Y-92082469D02*
X113330314Y-92177707D01*
X113330314Y-92177707D02*
X113377933Y-92272945D01*
X113425552Y-90844374D02*
X114092219Y-90844374D01*
X113425552Y-91272945D02*
X113949361Y-91272945D01*
X113949361Y-91272945D02*
X114044600Y-91225326D01*
X114044600Y-91225326D02*
X114092219Y-91130088D01*
X114092219Y-91130088D02*
X114092219Y-90987231D01*
X114092219Y-90987231D02*
X114044600Y-90891993D01*
X114044600Y-90891993D02*
X113996980Y-90844374D01*
D13*
X111099623Y-113134832D02*
X111671052Y-113134832D01*
X110985337Y-113477689D02*
X111385337Y-112277689D01*
X111385337Y-112277689D02*
X111785337Y-113477689D01*
X112185337Y-112677689D02*
X112185337Y-113477689D01*
X112185337Y-112791975D02*
X112242480Y-112734832D01*
X112242480Y-112734832D02*
X112356765Y-112677689D01*
X112356765Y-112677689D02*
X112528194Y-112677689D01*
X112528194Y-112677689D02*
X112642480Y-112734832D01*
X112642480Y-112734832D02*
X112699623Y-112849118D01*
X112699623Y-112849118D02*
X112699623Y-113477689D01*
X113785337Y-113477689D02*
X113785337Y-112849118D01*
X113785337Y-112849118D02*
X113728194Y-112734832D01*
X113728194Y-112734832D02*
X113613908Y-112677689D01*
X113613908Y-112677689D02*
X113385337Y-112677689D01*
X113385337Y-112677689D02*
X113271051Y-112734832D01*
X113785337Y-113420547D02*
X113671051Y-113477689D01*
X113671051Y-113477689D02*
X113385337Y-113477689D01*
X113385337Y-113477689D02*
X113271051Y-113420547D01*
X113271051Y-113420547D02*
X113213908Y-113306261D01*
X113213908Y-113306261D02*
X113213908Y-113191975D01*
X113213908Y-113191975D02*
X113271051Y-113077689D01*
X113271051Y-113077689D02*
X113385337Y-113020547D01*
X113385337Y-113020547D02*
X113671051Y-113020547D01*
X113671051Y-113020547D02*
X113785337Y-112963404D01*
X114528193Y-113477689D02*
X114413908Y-113420547D01*
X114413908Y-113420547D02*
X114356765Y-113306261D01*
X114356765Y-113306261D02*
X114356765Y-112277689D01*
X115156764Y-113477689D02*
X115042479Y-113420547D01*
X115042479Y-113420547D02*
X114985336Y-113363404D01*
X114985336Y-113363404D02*
X114928193Y-113249118D01*
X114928193Y-113249118D02*
X114928193Y-112906261D01*
X114928193Y-112906261D02*
X114985336Y-112791975D01*
X114985336Y-112791975D02*
X115042479Y-112734832D01*
X115042479Y-112734832D02*
X115156764Y-112677689D01*
X115156764Y-112677689D02*
X115328193Y-112677689D01*
X115328193Y-112677689D02*
X115442479Y-112734832D01*
X115442479Y-112734832D02*
X115499622Y-112791975D01*
X115499622Y-112791975D02*
X115556764Y-112906261D01*
X115556764Y-112906261D02*
X115556764Y-113249118D01*
X115556764Y-113249118D02*
X115499622Y-113363404D01*
X115499622Y-113363404D02*
X115442479Y-113420547D01*
X115442479Y-113420547D02*
X115328193Y-113477689D01*
X115328193Y-113477689D02*
X115156764Y-113477689D01*
X116585336Y-112677689D02*
X116585336Y-113649118D01*
X116585336Y-113649118D02*
X116528193Y-113763404D01*
X116528193Y-113763404D02*
X116471050Y-113820547D01*
X116471050Y-113820547D02*
X116356764Y-113877689D01*
X116356764Y-113877689D02*
X116185336Y-113877689D01*
X116185336Y-113877689D02*
X116071050Y-113820547D01*
X116585336Y-113420547D02*
X116471050Y-113477689D01*
X116471050Y-113477689D02*
X116242478Y-113477689D01*
X116242478Y-113477689D02*
X116128193Y-113420547D01*
X116128193Y-113420547D02*
X116071050Y-113363404D01*
X116071050Y-113363404D02*
X116013907Y-113249118D01*
X116013907Y-113249118D02*
X116013907Y-112906261D01*
X116013907Y-112906261D02*
X116071050Y-112791975D01*
X116071050Y-112791975D02*
X116128193Y-112734832D01*
X116128193Y-112734832D02*
X116242478Y-112677689D01*
X116242478Y-112677689D02*
X116471050Y-112677689D01*
X116471050Y-112677689D02*
X116585336Y-112734832D01*
X111556766Y-114781051D02*
X111156766Y-114781051D01*
X111156766Y-115409622D02*
X111156766Y-114209622D01*
X111156766Y-114209622D02*
X111728194Y-114209622D01*
X112185337Y-115409622D02*
X112185337Y-114609622D01*
X112185337Y-114209622D02*
X112128194Y-114266765D01*
X112128194Y-114266765D02*
X112185337Y-114323908D01*
X112185337Y-114323908D02*
X112242480Y-114266765D01*
X112242480Y-114266765D02*
X112185337Y-114209622D01*
X112185337Y-114209622D02*
X112185337Y-114323908D01*
X112928194Y-115409622D02*
X112813909Y-115352480D01*
X112813909Y-115352480D02*
X112756766Y-115238194D01*
X112756766Y-115238194D02*
X112756766Y-114209622D01*
X113213908Y-114609622D02*
X113671051Y-114609622D01*
X113385337Y-114209622D02*
X113385337Y-115238194D01*
X113385337Y-115238194D02*
X113442480Y-115352480D01*
X113442480Y-115352480D02*
X113556765Y-115409622D01*
X113556765Y-115409622D02*
X113671051Y-115409622D01*
X114528194Y-115352480D02*
X114413908Y-115409622D01*
X114413908Y-115409622D02*
X114185337Y-115409622D01*
X114185337Y-115409622D02*
X114071051Y-115352480D01*
X114071051Y-115352480D02*
X114013908Y-115238194D01*
X114013908Y-115238194D02*
X114013908Y-114781051D01*
X114013908Y-114781051D02*
X114071051Y-114666765D01*
X114071051Y-114666765D02*
X114185337Y-114609622D01*
X114185337Y-114609622D02*
X114413908Y-114609622D01*
X114413908Y-114609622D02*
X114528194Y-114666765D01*
X114528194Y-114666765D02*
X114585337Y-114781051D01*
X114585337Y-114781051D02*
X114585337Y-114895337D01*
X114585337Y-114895337D02*
X114013908Y-115009622D01*
X115099622Y-115409622D02*
X115099622Y-114609622D01*
X115099622Y-114838194D02*
X115156765Y-114723908D01*
X115156765Y-114723908D02*
X115213908Y-114666765D01*
X115213908Y-114666765D02*
X115328193Y-114609622D01*
X115328193Y-114609622D02*
X115442479Y-114609622D01*
X116642479Y-114609622D02*
X116928193Y-115409622D01*
X116928193Y-115409622D02*
X117213908Y-114609622D01*
X118299622Y-115409622D02*
X117613908Y-115409622D01*
X117956765Y-115409622D02*
X117956765Y-114209622D01*
X117956765Y-114209622D02*
X117842479Y-114381051D01*
X117842479Y-114381051D02*
X117728194Y-114495337D01*
X117728194Y-114495337D02*
X117613908Y-114552480D01*
%TO.C,J2*%
D14*
X115580000Y-99470000D02*
X115580000Y-102120000D01*
X112820000Y-102120000D02*
X115580000Y-102120000D01*
X112820000Y-99470000D02*
X115580000Y-99470000D01*
X112820000Y-99470000D02*
X112820000Y-102120000D01*
X112820000Y-98200000D02*
X112820000Y-96820000D01*
X112820000Y-96820000D02*
X114200000Y-96820000D01*
%TO.C,U1*%
X117935000Y-90285000D02*
X119755000Y-90285000D01*
X117935000Y-90335000D02*
X117935000Y-90285000D01*
X117935000Y-93405000D02*
X117935000Y-93355000D01*
X119755000Y-90285000D02*
X119755000Y-90335000D01*
X119755000Y-91455000D02*
X119755000Y-92235000D01*
X119755000Y-93355000D02*
X119755000Y-93405000D01*
X119755000Y-93405000D02*
X117935000Y-93405000D01*
X117395000Y-90335000D02*
X117155000Y-90005000D01*
X117635000Y-90005000D01*
X117395000Y-90335000D01*
G36*
X117395000Y-90335000D02*
G01*
X117155000Y-90005000D01*
X117635000Y-90005000D01*
X117395000Y-90335000D01*
G37*
%TO.C,U2*%
X122465000Y-112475000D02*
X126585000Y-112475000D01*
X122465000Y-112570000D02*
X122465000Y-112475000D01*
X122465000Y-117595000D02*
X122465000Y-117500000D01*
X126585000Y-112475000D02*
X126585000Y-112570000D01*
X126585000Y-117500000D02*
X126585000Y-117595000D01*
X126585000Y-117595000D02*
X122465000Y-117595000D01*
X121925000Y-112565000D02*
X121685000Y-112235000D01*
X122165000Y-112235000D01*
X121925000Y-112565000D01*
G36*
X121925000Y-112565000D02*
G01*
X121685000Y-112235000D01*
X122165000Y-112235000D01*
X121925000Y-112565000D01*
G37*
%TO.C,C1*%
X112045000Y-88735000D02*
X112739000Y-88735000D01*
X112045000Y-94075000D02*
X112045000Y-88735000D01*
X112739000Y-94075000D02*
X112045000Y-94075000D01*
X114791000Y-88735000D02*
X115485000Y-88735000D01*
X115485000Y-88735000D02*
X115485000Y-94075000D01*
X115485000Y-94075000D02*
X114791000Y-94075000D01*
%TO.C,C2*%
X131540000Y-91050000D02*
G75*
G02*
X125000000Y-91050000I-3270000J0D01*
G01*
X125000000Y-91050000D02*
G75*
G02*
X131540000Y-91050000I3270000J0D01*
G01*
%TO.C,C4*%
X112170000Y-105630000D02*
X118410000Y-105630000D01*
X112170000Y-107115000D02*
X112170000Y-105630000D01*
X112170000Y-110270000D02*
X112170000Y-108785000D01*
X118410000Y-105630000D02*
X118410000Y-107115000D01*
X118410000Y-108785000D02*
X118410000Y-110270000D01*
X118410000Y-110270000D02*
X112170000Y-110270000D01*
%TO.C,J1*%
X112335000Y-82865000D02*
X112335000Y-85625000D01*
X117525000Y-82865000D02*
X112335000Y-82865000D01*
X117525000Y-82865000D02*
X117525000Y-85625000D01*
X117525000Y-85625000D02*
X112335000Y-85625000D01*
X118795000Y-82865000D02*
X120175000Y-82865000D01*
X120175000Y-82865000D02*
X120175000Y-84245000D01*
%TO.C,C5*%
X121730000Y-106780000D02*
X127070000Y-106780000D01*
X121730000Y-107474000D02*
X121730000Y-106780000D01*
X121730000Y-110220000D02*
X121730000Y-109526000D01*
X127070000Y-106780000D02*
X127070000Y-107474000D01*
X127070000Y-109526000D02*
X127070000Y-110220000D01*
X127070000Y-110220000D02*
X121730000Y-110220000D01*
%TO.C,R3*%
X119985000Y-101045000D02*
X119985000Y-101375000D01*
X119985000Y-103785000D02*
X119985000Y-103455000D01*
X126525000Y-101045000D02*
X119985000Y-101045000D01*
X126525000Y-101375000D02*
X126525000Y-101045000D01*
X126525000Y-103455000D02*
X126525000Y-103785000D01*
X126525000Y-103785000D02*
X119985000Y-103785000D01*
%TO.C,R2*%
X119985000Y-96745000D02*
X126525000Y-96745000D01*
X119985000Y-97075000D02*
X119985000Y-96745000D01*
X119985000Y-99155000D02*
X119985000Y-99485000D01*
X119985000Y-99485000D02*
X126525000Y-99485000D01*
X126525000Y-96745000D02*
X126525000Y-97075000D01*
X126525000Y-99485000D02*
X126525000Y-99155000D01*
%TO.C,J3*%
X131005000Y-117065000D02*
X131005000Y-115685000D01*
X132385000Y-117065000D02*
X131005000Y-117065000D01*
X133655000Y-114305000D02*
X136305000Y-114305000D01*
X133655000Y-117065000D02*
X133655000Y-114305000D01*
X133655000Y-117065000D02*
X136305000Y-117065000D01*
X136305000Y-117065000D02*
X136305000Y-114305000D01*
%TO.C,C3*%
X129695000Y-106365000D02*
X135935000Y-106365000D01*
X129695000Y-107850000D02*
X129695000Y-106365000D01*
X129695000Y-111005000D02*
X129695000Y-109520000D01*
X135935000Y-106365000D02*
X135935000Y-107850000D01*
X135935000Y-109520000D02*
X135935000Y-111005000D01*
X135935000Y-111005000D02*
X129695000Y-111005000D01*
%TO.C,R1*%
X128810000Y-83095000D02*
X135350000Y-83095000D01*
X128810000Y-83425000D02*
X128810000Y-83095000D01*
X128810000Y-85505000D02*
X128810000Y-85835000D01*
X128810000Y-85835000D02*
X135350000Y-85835000D01*
X135350000Y-83095000D02*
X135350000Y-83425000D01*
X135350000Y-85835000D02*
X135350000Y-85505000D01*
%TO.C,D1*%
X134345000Y-99080000D02*
X137435000Y-99080000D01*
X134345170Y-99080000D02*
G75*
G02*
X135890000Y-93530000I1544830J2560000D01*
G01*
X135890000Y-93530000D02*
G75*
G02*
X137434830Y-99080000I0J-2990000D01*
G01*
X138390000Y-96520000D02*
G75*
G02*
X133390000Y-96520000I-2500000J0D01*
G01*
X133390000Y-96520000D02*
G75*
G02*
X138390000Y-96520000I2500000J0D01*
G01*
%TD*%
M02*
